<?xml version="1.0" encoding="UTF-8"?>
<svg version="1.1" xmlns="http://www.w3.org/2000/svg" width="1024" height="1024" viewBox="0 0 1024 1024" role="img" aria-labelledby="title desc">
<title id="title">DespensApp</title>
<desc id="desc">Icono de una despensa con alimentos.</desc>
<path d="M0 0 C337.92 0 675.84 0 1024 0 C1024 337.92 1024 675.84 1024 1024 C686.08 1024 348.16 1024 0 1024 C0 686.08 0 348.16 0 0 Z " fill="#FEFEFE" transform="translate(0,0)"/>
<path d="M0 0 C1.85047169 -0.00462028 3.70093971 -0.0109807 5.55140018 -0.01890898 C10.58817783 -0.03547065 15.62464887 -0.02741641 20.66142702 -0.0149641 C26.11210394 -0.00586155 31.56273051 -0.019909 37.01339722 -0.03088379 C47.67224526 -0.04861831 58.33098027 -0.04485165 68.98983264 -0.03323323 C77.65681554 -0.02417918 86.32376689 -0.02298342 94.99075317 -0.02732849 C96.22690339 -0.02794142 97.46305361 -0.02855436 98.73666292 -0.02918586 C101.24831542 -0.03046483 103.75996791 -0.03176169 106.27162039 -0.03307623 C129.12283238 -0.04414283 151.97399012 -0.03268977 174.82519187 -0.01170584 C195.6526185 0.00727433 216.47994727 0.00557572 237.30737305 -0.0135498 C260.74739052 -0.03500288 284.18735693 -0.04336869 307.62738323 -0.03110075 C310.12950833 -0.02982663 312.63163343 -0.02856914 315.13375854 -0.02732849 C316.36467305 -0.02671139 317.59558755 -0.02609429 318.86380249 -0.02545848 C327.51477538 -0.02201286 336.16571342 -0.02781692 344.81668091 -0.0372467 C355.36733919 -0.04849501 365.91787851 -0.04536719 376.46852326 -0.02412373 C381.84587156 -0.01365142 387.22302192 -0.00942605 392.6003685 -0.02272034 C397.53271147 -0.03472953 402.46467494 -0.02794255 407.39698398 -0.00681013 C409.17132537 -0.00237993 410.94569952 -0.00452855 412.72001946 -0.01431328 C444.69758862 -0.17698782 472.88530864 12.92391194 495.81225586 34.82043457 C518.0593866 57.88307597 528.75565074 87.49690303 528.5634613 119.2175293 C528.56736493 121.0310276 528.57301381 122.84452282 528.5802322 124.65801096 C528.59485233 129.58799401 528.5848865 134.51765327 528.57049549 139.4476254 C528.55931231 144.78514171 528.57135243 150.12261528 528.58033752 155.46012878 C528.59422227 165.89525763 528.58674911 176.33026491 528.57166194 186.76538789 C528.55474246 198.93426641 528.55801959 211.10311515 528.56175602 223.2720018 C528.56762588 244.99406245 528.55349739 266.71606501 528.52880859 288.43811035 C528.50489044 309.48468198 528.49780549 330.53117601 528.50830078 351.57775879 C528.51972705 374.53216474 528.52161895 397.48653485 528.50720268 420.44094038 C528.50567695 422.89167245 528.50415659 425.34240452 528.50264168 427.7931366 C528.50188386 428.99873841 528.50112605 430.20434022 528.50034527 431.44647542 C528.49561565 439.91564176 528.49744448 448.38479204 528.50170708 456.85395813 C528.50664931 467.18423059 528.50058018 477.5144299 528.48081278 487.84468567 C528.4709858 493.10871842 528.46578568 498.37264014 528.47370529 503.6366787 C528.48082274 508.46659022 528.47381754 513.29627889 528.45610166 518.12616128 C528.45209611 519.86213236 528.45299048 521.59812415 528.45962053 523.33408719 C528.51316067 538.6804583 527.2455034 553.90996116 521.37475586 568.25793457 C520.8503894 569.57676636 520.8503894 569.57676636 520.31542969 570.92224121 C507.71947274 601.77541798 483.47955482 625.51403215 452.87573242 638.43078613 C450.72085373 639.28675452 448.55656491 640.09829501 446.37475586 640.88293457 C445.43345825 641.22276367 445.43345825 641.22276367 444.47314453 641.56945801 C431.60180217 645.91711143 419.44289814 646.94482618 406.00331116 646.88215637 C404.21175302 646.88490206 402.4201965 646.88895848 400.62864393 646.89420003 C395.74088678 646.90472127 390.85331426 646.89670069 385.96556532 646.88544953 C380.68053208 646.87656761 375.39552196 646.88506255 370.11048889 646.89131165 C359.77075289 646.90077868 349.4310869 646.89421802 339.09135611 646.8820487 C327.03961415 646.86839542 314.98788867 646.87006952 302.93614095 646.87218203 C281.42583745 646.87536891 259.9155671 646.86372186 238.40527344 646.84411621 C217.55337514 646.82511577 196.70151571 646.81802844 175.84960938 646.8236084 C153.1212338 646.82967254 130.39287529 646.82947729 107.66450113 646.81812257 C105.23875614 646.81691533 102.81301115 646.81570934 100.38726616 646.81450462 C99.19388281 646.81390108 98.00049947 646.81329755 96.77095299 646.81267572 C88.37907454 646.80880372 79.98720247 646.80918742 71.59532356 646.81109047 C61.361502 646.81321732 51.12771439 646.80795132 40.89390237 646.79347692 C35.67687027 646.78625627 30.4598875 646.78213593 25.24285126 646.78672028 C20.45924277 646.79082136 15.67573575 646.78556165 10.89214259 646.7730942 C9.16956232 646.77018634 7.44697236 646.77056951 5.72439469 646.77473728 C-7.67047448 646.80418218 -21.11770284 646.42562467 -33.87524414 641.88293457 C-34.99527832 641.49379883 -34.99527832 641.49379883 -36.13793945 641.09680176 C-55.04045234 634.30084127 -70.69555168 623.54695738 -84.93774414 609.50793457 C-85.72793945 608.73062988 -86.51813477 607.9533252 -87.33227539 607.15246582 C-98.53102933 595.44378613 -106.49227295 580.48642993 -112.06274414 565.38293457 C-112.42577637 564.42592651 -112.42577637 564.42592651 -112.79614258 563.44958496 C-117.58840699 549.90601464 -118.37962293 536.28768699 -118.32542419 522.090271 C-118.32960673 520.28405006 -118.33508925 518.47783175 -118.34174401 516.67161822 C-118.3560969 511.75243746 -118.35198593 506.83342568 -118.34457719 501.91423607 C-118.33982243 496.59164264 -118.35237573 491.26908456 -118.3625946 485.94650269 C-118.37974338 475.53585469 -118.3806307 465.12526715 -118.3753817 454.7146087 C-118.37133115 446.24738297 -118.37279405 437.78017502 -118.37812996 429.31295013 C-118.37887838 428.10528421 -118.3796268 426.89761828 -118.3803979 425.65335642 C-118.38192947 423.19952958 -118.38346782 420.74570275 -118.38501287 418.29187593 C-118.39872394 395.30780616 -118.39331021 372.32377048 -118.38182766 349.3397015 C-118.3718986 328.34445163 -118.38483282 307.34928992 -118.40876185 286.35405365 C-118.43318533 264.76116443 -118.44275262 243.16831621 -118.43610913 221.57541347 C-118.43262389 209.4666848 -118.43480284 197.3580239 -118.45236015 185.24930573 C-118.46712287 174.9406254 -118.46766461 164.63206056 -118.45028924 154.32338241 C-118.44181001 149.07123011 -118.43955395 143.81928374 -118.4549408 138.56714249 C-118.46889032 133.74563187 -118.4638945 128.9245016 -118.44470156 124.10301241 C-118.44097242 122.37232634 -118.44377275 120.64160904 -118.45431321 118.91095105 C-118.64248538 85.60796615 -106.51410186 56.75594399 -83.62524414 32.75793457 C-77.58065661 26.90277856 -70.96080266 22.10499276 -63.93774414 17.50793457 C-62.9490332 16.85824707 -61.96032227 16.20855957 -60.94165039 15.53918457 C-42.29899107 4.0045134 -21.61776561 -0.11921411 0 0 Z " fill="#103F2E" transform="translate(306.937744140625,188.4920654296875)"/>
<path d="M0 0 C186.12 0 372.24 0 564 0 C564 150.36308366 564 150.36308366 541.2421875 174.84765625 C522.314804 193.01662543 500.16135598 198.32819155 474.69287109 198.25396729 C472.95864926 198.25627516 471.22442841 198.25945387 469.49020958 198.26342177 C464.75180124 198.27173345 460.01347397 198.26766106 455.27506542 198.26144934 C450.15433911 198.25691095 445.03362641 198.26391547 439.91290283 198.26940918 C429.89208738 198.27829004 419.87130194 198.27638699 409.85048532 198.2705839 C401.70441854 198.26606227 393.55836016 198.26545667 385.41229248 198.26763153 C384.25173131 198.267938 383.09117015 198.26824446 381.89544046 198.26856022 C379.53758764 198.26919968 377.17973482 198.26984811 374.82188201 198.2705054 C352.72605228 198.27620486 330.63023915 198.26965681 308.53441215 198.25890467 C289.58608416 198.24996951 270.63778067 198.25152166 251.68945312 198.26074219 C229.67125101 198.27145159 207.65306344 198.27565558 185.63485909 198.26951766 C183.28580857 198.26888058 180.93675804 198.26825184 178.58770752 198.26763153 C177.43200961 198.26732298 176.27631169 198.26701443 175.08559263 198.26669653 C166.95181324 198.2649716 158.81804309 198.26788034 150.68426514 198.27259064 C140.76834695 198.2782069 130.85246042 198.27666732 120.93654585 198.26602915 C115.87989275 198.2607825 110.82329238 198.25869854 105.76663971 198.26532745 C101.13299478 198.27130985 96.4994512 198.26797412 91.8658154 198.25737235 C90.19437104 198.25514801 88.52291803 198.25625276 86.85147929 198.26112393 C63.08623757 198.32504281 41.68996981 192.59772349 23.92578125 176.05078125 C-19.31555742 130.00270254 0 55.9380731 0 0 Z " fill="#FEA55D" transform="translate(230,596)"/>
<path d="M0 0 C1.78581735 -0.0044559 3.57163274 -0.0097711 5.35744524 -0.01586872 C10.25258901 -0.03001715 15.14766918 -0.03171261 20.04283047 -0.03127182 C25.32731368 -0.03292283 30.61177091 -0.04599471 35.89624023 -0.0574646 C47.44606681 -0.0802924 58.99587498 -0.08823293 70.54572105 -0.09329104 C77.76205595 -0.09655085 84.97838552 -0.10307507 92.19471741 -0.11029243 C112.18777036 -0.12985599 132.18081839 -0.14626146 152.17388153 -0.14916897 C153.45273217 -0.14935654 154.73158281 -0.14954411 156.0491865 -0.14973736 C158.64156119 -0.1501036 161.23393588 -0.1504673 163.82631058 -0.15082847 C165.11311173 -0.15101128 166.39991288 -0.1511941 167.72570801 -0.15138245 C169.01408603 -0.151563 170.30246405 -0.15174354 171.62988383 -0.15192956 C192.49828733 -0.15546993 213.36658755 -0.18248486 234.23495525 -0.21988034 C255.67731309 -0.25799581 277.11961973 -0.27732669 298.5620122 -0.27762848 C310.59420379 -0.27821234 322.6262722 -0.28665839 334.65843201 -0.31562614 C344.90552717 -0.3401834 355.15245422 -0.34739359 365.39957088 -0.33237862 C370.62299983 -0.3252274 375.84609711 -0.32598995 381.06948853 -0.34878922 C385.86157725 -0.36950455 390.65308195 -0.36666257 395.44516522 -0.34591437 C397.16861028 -0.34244334 398.89209857 -0.34722685 400.61548704 -0.36161881 C421.79060087 -0.52689858 442.64868409 5.68988572 458.17248535 20.64402771 C488.41752514 51.20879259 481.55578613 90.10701203 481.55578613 132.27415466 C295.43578613 132.27415466 109.31578613 132.27415466 -82.44421387 132.27415466 C-82.44421387 57.00616152 -82.44421387 57.00616152 -74.69421387 42.89915466 C-74.34914795 42.24543884 -74.00408203 41.59172302 -73.64855957 40.91819763 C-63.68463947 22.50134463 -48.95645117 9.9472685 -29.23718262 3.06321716 C-28.31550293 2.80282654 -27.39382324 2.54243591 -26.44421387 2.27415466 C-24.66998676 1.7632247 -24.66998676 1.7632247 -22.85991669 1.24197292 C-15.3636777 -0.39162424 -7.63252627 -0.01199684 0 0 Z " fill="#FDFDFD" transform="translate(312.4442138671875,229.72584533691406)"/>
<path d="M0 0 C186.12 0 372.24 0 564 0 C564 150.36308366 564 150.36308366 541.2421875 174.84765625 C522.314804 193.01662543 500.16135598 198.32819155 474.69287109 198.25396729 C472.95864926 198.25627516 471.22442841 198.25945387 469.49020958 198.26342177 C464.75180124 198.27173345 460.01347397 198.26766106 455.27506542 198.26144934 C450.15433911 198.25691095 445.03362641 198.26391547 439.91290283 198.26940918 C429.89208738 198.27829004 419.87130194 198.27638699 409.85048532 198.2705839 C401.70441854 198.26606227 393.55836016 198.26545667 385.41229248 198.26763153 C384.25173131 198.267938 383.09117015 198.26824446 381.89544046 198.26856022 C379.53758764 198.26919968 377.17973482 198.26984811 374.82188201 198.2705054 C352.72605228 198.27620486 330.63023915 198.26965681 308.53441215 198.25890467 C289.58608416 198.24996951 270.63778067 198.25152166 251.68945312 198.26074219 C229.67125101 198.27145159 207.65306344 198.27565558 185.63485909 198.26951766 C183.28580857 198.26888058 180.93675804 198.26825184 178.58770752 198.26763153 C177.43200961 198.26732298 176.27631169 198.26701443 175.08559263 198.26669653 C166.95181324 198.2649716 158.81804309 198.26788034 150.68426514 198.27259064 C140.76834695 198.2782069 130.85246042 198.27666732 120.93654585 198.26602915 C115.87989275 198.2607825 110.82329238 198.25869854 105.76663971 198.26532745 C101.13299478 198.27130985 96.4994512 198.26797412 91.8658154 198.25737235 C90.19437104 198.25514801 88.52291803 198.25625276 86.85147929 198.26112393 C63.08623757 198.32504281 41.68996981 192.59772349 23.92578125 176.05078125 C-19.31555742 130.00270254 0 55.9380731 0 0 Z M56 40 C54.85410286 42.29179427 54.8672586 43.58664487 54.85282898 46.13491821 C54.84567368 47.00117828 54.83851837 47.86743835 54.83114624 48.75994873 C54.82845734 49.71266663 54.82576843 50.66538452 54.82299805 51.64697266 C54.81642685 52.64878571 54.80985565 53.65059875 54.80308533 54.68276978 C54.783319 58.00986806 54.77168072 61.33692108 54.76171875 64.6640625 C54.75764322 65.79962963 54.7535677 66.93519676 54.74936867 68.10517502 C54.72849117 74.11845469 54.71419816 80.13171143 54.70483398 86.14501953 C54.69378152 92.35245014 54.65939946 98.55952108 54.61966228 104.76682472 C54.59349267 109.54186665 54.58514168 114.31682306 54.58155251 119.09193039 C54.57668547 121.37961626 54.5650682 123.66729828 54.54651451 125.95491409 C54.52212237 129.16245045 54.52308892 132.3690591 54.5300293 135.57666016 C54.51721924 136.51723267 54.50440918 137.45780518 54.49121094 138.42687988 C54.54396923 145.13716905 55.58772317 150.48054496 60.38543624 155.42895222 C67.41207609 160.66250283 75.89719712 159.69366844 84.23266602 159.63491821 C86.0075412 159.64068193 87.78241042 159.64862474 89.55726719 159.65855443 C94.42658706 159.67941654 99.29541661 159.66911541 104.16473818 159.65362334 C109.41909377 159.64231121 114.67336501 159.65977188 119.92770386 159.67352295 C130.21781966 159.69576129 140.50775316 159.69095146 150.79787612 159.67645974 C159.16052354 159.66516988 167.52311985 159.66363552 175.88577271 159.66907883 C177.07578434 159.66984499 178.26579597 159.67061116 179.49186856 159.67140054 C181.90932045 159.67299916 184.32677233 159.67462023 186.74422419 159.6762635 C209.41508078 159.69052275 232.0858363 159.67412546 254.75667632 159.64726166 C274.21120723 159.62492276 293.66558897 159.62880284 313.12011719 159.65185547 C335.70959778 159.67861031 358.29898978 159.68914944 380.888484 159.67379415 C383.29706509 159.6722014 385.70564618 159.67062954 388.11422729 159.66907883 C389.89185002 159.66792176 389.89185002 159.66792176 391.70538431 159.66674132 C400.05842277 159.66242338 408.41140506 159.66971291 416.76443481 159.68147659 C426.94339644 159.69549658 437.12216526 159.69171205 447.30110478 159.66507287 C452.49504283 159.65192809 457.68865936 159.64679379 462.88259506 159.66331863 C467.63727297 159.67821722 472.39133136 159.6700313 477.14595306 159.64343087 C478.8658925 159.63784555 480.58588428 159.64068754 482.30579007 159.65280981 C493.57043367 159.95492831 493.57043367 159.95492831 503.61485434 155.42933965 C509.16944591 149.69752518 509.5837648 143.27728909 509.51757812 135.64013672 C509.5245874 134.63423492 509.53159668 133.62833313 509.53881836 132.59194946 C509.55633482 129.28757622 509.54479949 125.9840685 509.53125 122.6796875 C509.5339463 120.37378781 509.53782987 118.06788922 509.54284668 115.76199341 C509.54873278 110.93871188 509.54020548 106.11572738 509.52148438 101.29248047 C509.49867011 95.11409365 509.51183979 88.93640098 509.53577423 82.75803947 C509.55023409 78.00020118 509.5456257 73.24252726 509.53526306 68.48468399 C509.53259765 66.20653323 509.53585898 63.92836747 509.54518127 61.65023422 C509.5553524 58.46677892 509.5398379 55.28444602 509.51757812 52.10107422 C509.52972351 50.69356903 509.52972351 50.69356903 509.54211426 49.25762939 C509.45580796 42.58715403 508.12839512 39.15084771 503.3671875 34.35546875 C498.43794154 30.49723696 496.32179049 29.87438591 490.05519485 29.86577892 C488.96542866 29.86225058 488.96542866 29.86225058 487.85364699 29.85865095 C485.39421755 29.8519397 482.93484068 29.85241981 480.47540283 29.85282898 C478.7042879 29.84953168 476.93317371 29.84580639 475.1620605 29.8416875 C470.27548501 29.8316442 465.38892181 29.82794697 460.50233746 29.82529819 C455.239763 29.82140204 449.97719835 29.81182326 444.71463013 29.80308533 C431.99600858 29.78330164 419.27738622 29.77325241 406.55875313 29.76435754 C400.57437279 29.75997785 394.58999334 29.75461023 388.60561371 29.74936867 C368.72090971 29.73235468 348.83620628 29.7178594 328.95149612 29.71061993 C323.78862762 29.70870993 318.62575911 29.70678961 313.46289062 29.70483398 C311.5380014 29.70410837 311.5380014 29.70410837 309.57422552 29.7033681 C288.77556294 29.69506373 267.9769578 29.66972069 247.17832032 29.63725331 C225.84133272 29.60421615 204.50437434 29.5861742 183.16736102 29.58297569 C171.18070335 29.58080751 159.19412944 29.57201401 147.20749664 29.54651451 C137.00129374 29.52485317 126.79519493 29.51673455 116.58897164 29.52648129 C111.37914753 29.53103923 106.1695384 29.52905327 100.9597435 29.50971985 C96.19269665 29.4921818 91.42602313 29.49300937 86.65897283 29.50861714 C84.93214947 29.51100751 83.20530089 29.50659622 81.47851625 29.49478849 C79.13461057 29.47975053 76.79204158 29.48928455 74.44816971 29.50501537 C73.14529424 29.50403856 71.84241877 29.50306176 70.50006223 29.50205535 C63.66713443 30.47415802 59.96062407 34.79460836 56 40 Z " fill="#FCFDFB" transform="translate(230,596)"/>
<path d="M0 0 C186.12 0 372.24 0 564 0 C564 49.83 564 99.66 564 151 C542.22 151 520.44 151 498 151 C499.65 149.68 501.3 148.36 503 147 C506.532719 142.97662558 508.11141356 140.1316093 508.16062927 134.77606201 C508.1706749 133.91539627 508.18072052 133.05473053 508.19107056 132.16798401 C508.19981705 130.75596962 508.19981705 130.75596962 508.20874023 129.31542969 C508.21852402 128.32161789 508.2283078 127.32780609 508.23838806 126.30387878 C508.26834047 123.00989116 508.2897267 119.71594411 508.30859375 116.421875 C508.31845149 114.73457653 508.31845149 114.73457653 508.32850838 113.01319122 C508.36110074 107.05942543 508.38555238 101.10567753 508.4050293 95.15185547 C508.42284693 90.22418199 508.4576757 85.29708024 508.50756836 80.36962891 C508.56773798 74.420363 508.59850074 68.47162754 508.60820198 62.52207184 C508.61676284 60.25585002 508.63559627 57.9896426 508.6649456 55.72359467 C508.70384765 52.54915053 508.70489588 49.37677427 508.69702148 46.20214844 C508.71702209 45.26890244 508.73702271 44.33565643 508.75762939 43.37413025 C508.69399574 37.64997745 507.62888668 34.55514383 503.67862034 30.36789322 C500.42240315 27.71442995 497.79831364 26.75115168 493.6111145 26.73257446 C492.73921478 26.72404449 491.86731506 26.71551453 490.96899414 26.70672607 C489.54598999 26.70808563 489.54598999 26.70808563 488.09423828 26.70947266 C487.08892059 26.70275543 486.08360291 26.69603821 485.04782104 26.68911743 C481.72193469 26.67010766 478.39624981 26.66621173 475.0703125 26.6640625 C472.75869666 26.65763674 470.44708165 26.65090855 468.13546753 26.64389038 C463.28837193 26.63191022 458.44134764 26.62821033 453.59423828 26.62939453 C447.38439966 26.62959778 441.17501838 26.60229238 434.96528816 26.56785011 C430.19031678 26.54560883 425.41545596 26.54155614 420.64043808 26.54261398 C418.35110777 26.54025398 416.0617746 26.53140806 413.77249527 26.51594925 C410.56952161 26.49634567 407.36754055 26.50210574 404.16455078 26.51416016 C403.21992981 26.50292114 402.27530884 26.49168213 401.30206299 26.48010254 C395.71382733 26.53352417 392.32750593 27.11949307 388 31 C383.43532366 36.10984013 383.4257732 40.51954782 383.48242188 47.04101562 C383.4754126 48.0368718 383.46840332 49.03272797 383.46118164 50.0587616 C383.44361627 53.34154369 383.45521972 56.62345956 383.46875 59.90625 C383.46605468 62.19258794 383.46217193 64.47892477 383.45715332 66.76525879 C383.45126022 71.55341522 383.4598155 76.34127287 383.47851562 81.12939453 C383.50130465 87.26300083 383.48818062 93.39590699 383.46422577 99.52948761 C383.44976295 104.2495856 383.4543761 108.96951795 383.46473694 113.68962097 C383.46740286 115.95102522 383.46413921 118.21244457 383.45481873 120.47383118 C383.44464558 123.63595342 383.46016605 126.79694613 383.48242188 129.95898438 C383.47027649 131.35717659 383.47027649 131.35717659 383.45788574 132.78361511 C383.57057817 141.43824263 386.84165154 144.84165154 393 151 C357.03 151 321.06 151 284 151 C284 150.67 284 150.34 284 150 C285.32451172 149.67128906 285.32451172 149.67128906 286.67578125 149.3359375 C303.44510992 144.9049441 316.94321139 136.3464069 326.5390625 121.6015625 C334.76157658 106.95933154 338.12098733 89.19205991 334.08984375 72.65234375 C329.33843796 56.44769743 318.85508477 42.86347013 304.25390625 34.41015625 C289.33131283 26.47343231 271.55832236 23.95151957 255.0625 28.5 C236.47493208 35.31624727 223.70581399 47.00206888 215.25390625 64.98828125 C208.78560618 80.52429169 209.22306207 96.37918442 215.23046875 111.9296875 C217.52842292 117.41889222 220.37864673 122.2775072 224 127 C224.57105469 127.77472656 225.14210938 128.54945313 225.73046875 129.34765625 C234.54496373 140.30469372 246.846243 146.02188808 260 150 C260 150.33 260 150.66 260 151 C217.1 151 174.2 151 130 151 C133.63616189 149.18191905 137.18809918 147.83122624 141 146.4375 C158.2509352 139.75693927 168.90294487 127.3867679 176.20166016 110.86279297 C182.24323756 96.76577903 181.77991049 80.85938327 176.48046875 66.58984375 C170.00920623 50.89831272 159.96818294 39.57957031 144.5 32.1875 C142.67702357 31.43281326 140.84375996 30.70238475 139 30 C138.22011719 29.6803125 137.44023437 29.360625 136.63671875 29.03125 C123.61571388 24.54554497 106.39639439 25.14721317 94 31 C93.14664063 31.36222656 92.29328125 31.72445313 91.4140625 32.09765625 C74.61265456 39.72291062 64.85294303 53.2846035 57.828125 69.74609375 C52.5887338 85.5878379 55.94560059 103.55168402 62.6875 118.3125 C65.92538393 124.3876206 70.12727602 129.17929798 75 134 C75.51820313 134.55171875 76.03640625 135.1034375 76.5703125 135.671875 C80.46538607 139.4649833 85.13503453 141.80396917 89.9375 144.25 C90.60595947 144.5917627 91.27441895 144.93352539 91.96313477 145.28564453 C96.56582742 147.53899351 100.99360832 148.90362819 106 150 C106 150.33 106 150.66 106 151 C71.02 151 36.04 151 0 151 C0 101.17 0 51.34 0 0 Z " fill="#FCFDFC" transform="translate(230,403)"/>
<path d="M0 0 C12.17763959 8.3939386 20.28205986 19.0782418 25.58984375 32.78515625 C26.07130859 34.00912109 26.07130859 34.00912109 26.5625 35.2578125 C32.09764101 51.91472521 28.49767643 69.20671766 20.96484375 84.53515625 C11.65656448 100.26945573 -1.44687859 108.61669164 -18.41015625 114.78515625 C21.84984375 114.78515625 62.10984375 114.78515625 103.58984375 114.78515625 C96.65984375 111.81515625 96.65984375 111.81515625 89.58984375 108.78515625 C73.90904755 99.32716023 63.2248409 84.68025602 58.47265625 67.06640625 C54.86777494 51.43321356 58.26566957 35.81392146 65.703125 21.80078125 C75.34852473 6.3841175 89.43202706 -4.63957593 107.40722656 -8.83764648 C123.73711438 -11.65975797 140.77386805 -9.04247157 154.80859375 -0.1953125 C169.40378157 10.19760916 179.58672625 24.1802052 183.58984375 41.78515625 C183.99608295 45.19473435 184.06821115 48.54140399 184.02734375 51.97265625 C184.01904541 52.88394287 184.01074707 53.79522949 184.00219727 54.73413086 C183.55674596 72.76936059 176.48009341 87.23356668 163.58984375 99.78515625 C155.45101901 107.29081472 147.02342903 111.30729449 136.58984375 114.78515625 C170.57984375 114.78515625 204.56984375 114.78515625 239.58984375 114.78515625 C237.27984375 112.80515625 234.96984375 110.82515625 232.58984375 108.78515625 C230.78711314 105.17969503 230.33909595 104.15660836 230.32241821 100.43423462 C230.30962326 99.13900627 230.30962326 99.13900627 230.29656982 97.81761169 C230.2974762 96.878293 230.29838257 95.9389743 230.29931641 94.97119141 C230.29259918 93.97562729 230.28588196 92.98006317 230.27896118 91.95433044 C230.25995236 88.66090921 230.25605553 85.36769144 230.25390625 82.07421875 C230.24748042 79.78502315 230.24075222 77.49582838 230.23373413 75.20663452 C230.2217542 70.40661718 230.21805406 65.60667186 230.21923828 60.80664062 C230.21944153 54.6573343 230.19213627 48.50848983 230.15769386 42.35929298 C230.13545177 37.63064454 230.13139992 32.90210773 230.13245773 28.17341232 C230.13009784 25.90641055 230.12125258 23.63940588 230.105793 21.3724556 C230.08618776 18.20061181 230.09195011 15.02977023 230.10400391 11.85791016 C230.09276489 10.92263992 230.08152588 9.98736969 230.06994629 9.02375793 C230.12388111 3.43593517 230.83941527 0.2057773 234.58984375 -4.21484375 C238.37874543 -7.5526857 240.7040747 -9.33360666 245.73822021 -9.36201477 C246.60737061 -9.36917007 247.476521 -9.37632538 248.37200928 -9.38369751 C249.80579926 -9.38773087 249.80579926 -9.38773087 251.26855469 -9.3918457 C252.77609314 -9.4017025 252.77609314 -9.4017025 254.31408691 -9.41175842 C257.65079823 -9.43152108 260.98746446 -9.44316087 264.32421875 -9.453125 C265.46228218 -9.45720053 266.60034561 -9.46127605 267.77289581 -9.46547508 C273.79683756 -9.48634885 279.82075645 -9.50064471 285.84472656 -9.51000977 C292.07028937 -9.52107464 298.29549479 -9.55547208 304.52093124 -9.59518147 C309.30447051 -9.62131538 314.08792424 -9.62969878 318.87152863 -9.63329124 C321.16644961 -9.63816582 323.46136656 -9.64980444 325.75621796 -9.66832924 C328.96895217 -9.6926505 332.18075678 -9.69176808 335.39355469 -9.68481445 C336.34131775 -9.69762451 337.28908081 -9.71043457 338.26556396 -9.72363281 C345.61014933 -9.66570717 349.01074525 -7.59926399 354.4263916 -2.59240723 C357.60838228 1.49071971 357.27599921 5.84190565 357.20507812 10.82617188 C357.21062714 11.82202805 357.21617615 12.81788422 357.22189331 13.84391785 C357.23367802 17.1269076 357.20942509 20.40851357 357.18359375 23.69140625 C357.18188228 25.97774187 357.1819487 28.26407946 357.18371582 30.55041504 C357.18206323 35.33865164 357.16337562 40.12641971 357.13183594 44.91455078 C357.09215908 51.04808501 357.08779122 57.18100565 357.09529877 63.31464386 C357.09837025 68.03474535 357.08624146 72.75470926 357.06916809 77.47477722 C357.06214346 79.73617184 357.05901291 81.99758206 357.05986023 84.25898743 C357.05805987 87.42099112 357.03665671 90.58226359 357.00976562 93.74414062 C357.01269623 94.67626877 357.01562683 95.60839691 357.01864624 96.56877136 C356.95135794 101.70432584 356.59109759 105.42645184 353.58984375 109.78515625 C351.60984375 111.43515625 349.62984375 113.08515625 347.58984375 114.78515625 C379.26984375 115.28015625 379.26984375 115.28015625 411.58984375 115.78515625 C411.58984375 116.11515625 411.58984375 116.44515625 411.58984375 116.78515625 C225.46984375 116.78515625 39.34984375 116.78515625 -152.41015625 116.78515625 C-152.41015625 116.45515625 -152.41015625 116.12515625 -152.41015625 115.78515625 C-119.08015625 115.45515625 -85.75015625 115.12515625 -51.41015625 114.78515625 C-55.37015625 113.13515625 -59.33015625 111.48515625 -63.41015625 109.78515625 C-79.89919631 100.5216506 -90.48933229 87.92039511 -95.68359375 69.6953125 C-95.92335938 68.73496094 -96.163125 67.77460938 -96.41015625 66.78515625 C-96.60222656 66.02074219 -96.79429687 65.25632812 -96.9921875 64.46875 C-99.68728489 47.16471346 -96.01294874 31.42138272 -86.41015625 16.78515625 C-65.77944401 -10.84556169 -29.46938817 -17.32711394 0 0 Z " fill="#F2644B" transform="translate(382.41015625,438.21484375)"/>
<path d="M0 0 C4.36274083 2.0243652 6.22113172 4.39118549 8.625 8.5 C8.95999512 9.06549561 9.29499023 9.63099121 9.64013672 10.21362305 C10.77308318 12.13511872 11.8870722 14.06684815 13 16 C13.8224255 17.4130464 14.64536001 18.82579664 15.46875 20.23828125 C17.30700385 23.39934891 19.1362646 26.56545019 20.9609375 29.734375 C24.20096853 35.35721863 27.47516415 40.95987913 30.75 46.5625 C36.57444335 56.53264818 42.35469484 66.52768536 48.11425781 76.53540039 C48.70948242 77.56914795 49.30470703 78.60289551 49.91796875 79.66796875 C50.44156982 80.57828857 50.9651709 81.4886084 51.50463867 82.42651367 C52.53780116 84.20456523 53.60273695 85.9643965 54.69262695 87.70825195 C56 90 56 90 56 92 C73.71707928 94.25563452 73.71707928 94.25563452 91 91 C98.50737076 84.97725485 101.86347202 75.46878012 105.39208984 66.76318359 C107.73162356 61.10282422 110.94149463 55.96699892 114.125 50.75 C115.26823806 48.80568218 116.40757222 46.85906358 117.54296875 44.91015625 C118.10677246 43.9473877 118.67057617 42.98461914 119.25146484 41.99267578 C121.08670228 38.85160617 122.91339314 35.70568636 124.73828125 32.55859375 C125.35751465 31.4922168 125.97674805 30.42583984 126.61474609 29.32714844 C127.78474206 27.31185937 128.95317395 25.29566099 130.11962891 23.27832031 C131.72975949 20.50856702 133.35770934 17.75080029 135 15 C135.59055176 14.0095166 136.18110352 13.0190332 136.78955078 11.99853516 C137.38622559 11.02577637 137.98290039 10.05301758 138.59765625 9.05078125 C139.13011963 8.17719971 139.66258301 7.30361816 140.21118164 6.40356445 C142.7180585 3.03517321 145.30293708 0.38997484 149.46484375 -0.56640625 C150.28082031 -0.56511719 151.09679687 -0.56382812 151.9375 -0.5625 C153.15759766 -0.59537109 153.15759766 -0.59537109 154.40234375 -0.62890625 C159.17301197 0.52609764 161.86842317 3.35312157 164.56225586 7.27368164 C166.27325644 10.08691357 167.89616243 12.93683529 169.5 15.8125 C170.73662942 17.98197023 171.97361876 20.15123533 173.2109375 22.3203125 C173.83838867 23.42922852 174.46583984 24.53814453 175.11230469 25.68066406 C178.06804105 30.87805046 181.09987569 36.03031117 184.125 41.1875 C188.02837788 47.86798897 191.91449643 54.5574394 195.73217773 61.28735352 C196.73580707 63.03970938 197.75597223 64.78270815 198.79321289 66.51538086 C201.23426454 70.62936552 203.25969099 74.49260768 204.73828125 79.05078125 C206.58132584 84.11170982 208.13379099 88.25941792 213 91 C224.43770534 93.40572731 236.39838229 92.67606549 248 92 C248.29028076 91.25032959 248.58056152 90.50065918 248.87963867 89.72827148 C249.79488617 87.49948727 250.76102686 85.44986076 251.92578125 83.34765625 C252.30307373 82.66574219 252.68036621 81.98382813 253.0690918 81.28125 C253.68457886 80.18296875 253.68457886 80.18296875 254.3125 79.0625 C254.75053955 78.27746094 255.1885791 77.49242187 255.63989258 76.68359375 C259.59263584 69.64300689 263.69372272 62.69345296 267.82055664 55.75390625 C272.19380569 48.39272703 276.48187739 40.98504284 280.75 33.5625 C282.01528613 31.37089807 283.2809008 29.17948578 284.546875 26.98828125 C286.61380569 23.41051195 288.66721019 19.82595647 290.703125 16.23046875 C298.58087026 2.45900296 298.58087026 2.45900296 304 0 C308.58364061 -0.99083971 311.69561954 -0.64517743 315.90625 1.4375 C320.21235089 4.50755899 322.4058418 9.09720367 324.9375 13.625 C325.76568237 15.06588989 325.76568237 15.06588989 326.6105957 16.53588867 C327.7975893 18.60347476 328.97863008 20.67448751 330.15429688 22.74853516 C332.66508578 27.17164186 335.21298312 31.57295653 337.7590332 35.97583008 C339.67536574 39.29150507 341.58607054 42.61037488 343.49609375 45.9296875 C346.76951798 51.61042962 350.08118834 57.26744771 353.41674805 62.91186523 C357.1286476 69.19876343 360.78123829 75.51957793 364.42285156 81.84741211 C364.86081055 82.60675049 365.29876953 83.36608887 365.75 84.1484375 C366.13671875 84.82052246 366.5234375 85.49260742 366.921875 86.18505859 C367.89474689 87.8228144 368.94333998 89.41500997 370 91 C372.74522548 91.47863357 372.74522548 91.47863357 376.01025391 91.43237305 C377.28908447 91.45231323 378.56791504 91.47225342 379.88549805 91.49279785 C381.24918433 91.4994956 382.61287258 91.50580565 383.9765625 91.51171875 C385.21301514 91.52835571 386.44946777 91.54499268 387.72338867 91.56213379 C392.35708479 91.62011524 396.99107535 91.65223022 401.625 91.6875 C417.155625 91.8421875 417.155625 91.8421875 433 92 C433 70.88 433 49.76 433 28 C433.33 28 433.66 28 434 28 C434 49.45 434 70.9 434 93 C247.88 93 61.76 93 -130 93 C-130 71.88 -130 50.76 -130 29 C-129.67 29 -129.34 29 -129 29 C-129 49.79 -129 70.58 -129 92 C-107.88 92 -86.76 92 -65 92 C-64.34 90.02 -63.68 88.04 -63 86 C-62.14032365 84.33236954 -61.22811924 82.69093121 -60.26953125 81.078125 C-59.72159912 80.1485498 -59.17366699 79.21897461 -58.60913086 78.26123047 C-58.01624268 77.26752441 -57.42335449 76.27381836 -56.8125 75.25 C-55.53835577 73.09156287 -54.2649432 70.93269369 -52.9921875 68.7734375 C-52.3331543 67.65807617 -51.67412109 66.54271484 -50.99511719 65.39355469 C-47.77091662 59.9094152 -44.60645686 54.39117952 -41.4375 48.875 C-35.19031326 38.02317082 -28.87489235 27.2128428 -22.46118164 16.45849609 C-21.43175395 14.72644315 -20.41088282 12.98929051 -19.39624023 11.24853516 C-18.87102783 10.35440918 -18.34581543 9.4602832 -17.8046875 8.5390625 C-17.33401855 7.73162598 -16.86334961 6.92418945 -16.37841797 6.09228516 C-12.43077258 0.10019855 -6.7602795 -1.30502787 0 0 Z " fill="#F3A461" transform="translate(360,269)"/>
<path d="M0 0 C0.86915039 -0.0071553 1.73830078 -0.01431061 2.63378906 -0.02168274 C4.06757904 -0.02571609 4.06757904 -0.02571609 5.53033447 -0.02983093 C7.03787292 -0.03968773 7.03787292 -0.03968773 8.5758667 -0.04974365 C11.91257801 -0.06950631 15.24924425 -0.0811461 18.58599854 -0.09111023 C19.72406197 -0.09518576 20.8621254 -0.09926128 22.0346756 -0.10346031 C28.05861735 -0.12433408 34.08253623 -0.13862994 40.10650635 -0.147995 C46.33206916 -0.15905987 52.55727458 -0.19345731 58.78271103 -0.23316669 C63.5662503 -0.25930061 68.34970403 -0.26768401 73.13330841 -0.27127647 C75.4282294 -0.27615105 77.72314635 -0.28778966 80.01799774 -0.30631447 C83.23073196 -0.33063573 86.44253657 -0.32975331 89.65533447 -0.32279968 C90.60309753 -0.33560974 91.5508606 -0.3484198 92.52734375 -0.36161804 C99.87192912 -0.3036924 103.27252504 1.76275078 108.68817139 6.76960754 C111.87016206 10.85273448 111.537779 15.20392042 111.46685791 20.18818665 C111.47240692 21.18404282 111.47795593 22.17989899 111.4836731 23.20593262 C111.49545781 26.48892237 111.47120488 29.77052834 111.44537354 33.05342102 C111.44366206 35.33975664 111.44372849 37.62609423 111.44549561 39.91242981 C111.44384302 44.70066641 111.4251554 49.48843448 111.39361572 54.27656555 C111.35393886 60.41009978 111.34957101 66.54302042 111.35707855 72.67665863 C111.36015004 77.39676013 111.34802125 82.11672403 111.33094788 86.83679199 C111.32392324 89.09818661 111.32079269 91.35959683 111.32164001 93.6210022 C111.31983965 96.78300589 111.2984365 99.94427836 111.27154541 103.1061554 C111.27447601 104.03828354 111.27740662 104.97041168 111.28042603 105.93078613 C111.20360215 111.79411099 110.49173444 116.31896061 106.31646729 120.79170227 C102.51309216 123.7001656 100.4345426 125.26354395 95.67874146 125.31452942 C94.80406723 125.3260202 93.92939301 125.33751099 93.0282135 125.34934998 C91.58511055 125.36045303 91.58511055 125.36045303 90.112854 125.3717804 C89.10128738 125.38317047 88.08972076 125.39456055 87.04750061 125.40629578 C76.45850539 125.51697812 65.86880982 125.56438477 55.27935791 125.60713196 C50.25459638 125.62940534 45.23057773 125.6711704 40.20611572 125.73017883 C34.14126757 125.80126946 28.07711858 125.83796509 22.01187515 125.85025024 C19.70179875 125.86065106 17.39174348 125.88307551 15.08190536 125.91784668 C11.84269693 125.96408254 8.6062259 125.96604881 5.36676025 125.9577179 C3.94187538 125.99311172 3.94187538 125.99311172 2.48820496 126.02922058 C-3.80689128 125.95107628 -7.02170263 124.38424976 -11.57273674 120.04055023 C-14.34333182 116.71124401 -15.39642455 114.1211849 -15.415802 109.79624939 C-15.42433197 108.93276382 -15.43286194 108.06927826 -15.44165039 107.17962646 C-15.44074402 106.24030777 -15.43983765 105.30098907 -15.43890381 104.33320618 C-15.44562103 103.33764206 -15.45233826 102.34207794 -15.45925903 101.31634521 C-15.47826786 98.02292398 -15.48216468 94.72970621 -15.48431396 91.43623352 C-15.49073979 89.14703792 -15.49746799 86.85784315 -15.50448608 84.56864929 C-15.51646601 79.76863196 -15.52016616 74.96868663 -15.51898193 70.1686554 C-15.51877869 64.01934907 -15.54608395 57.87050461 -15.58052635 51.72130775 C-15.60276845 46.99265931 -15.6068203 42.2641225 -15.60576248 37.53542709 C-15.60812237 35.26842532 -15.61696763 33.00142065 -15.63242722 30.73447037 C-15.65203246 27.56262658 -15.64627011 24.391785 -15.63421631 21.21992493 C-15.64545532 20.28465469 -15.65669434 19.34938446 -15.66827393 18.38577271 C-15.6143391 12.79794994 -14.89880495 9.56779207 -11.14837646 5.14717102 C-7.35947479 1.80932907 -5.03414551 0.02840811 0 0 Z " fill="#D9A827" transform="translate(628.1483764648438,428.8528289794922)"/>
<path d="M0 0 C4.36274083 2.0243652 6.22113172 4.39118549 8.625 8.5 C8.95999512 9.06549561 9.29499023 9.63099121 9.64013672 10.21362305 C10.77308318 12.13511872 11.8870722 14.06684815 13 16 C13.8224255 17.4130464 14.64536001 18.82579664 15.46875 20.23828125 C17.30700385 23.39934891 19.1362646 26.56545019 20.9609375 29.734375 C24.20096853 35.35721863 27.47516415 40.95987913 30.75 46.5625 C36.57444335 56.53264818 42.35469484 66.52768536 48.11425781 76.53540039 C48.70948242 77.56914795 49.30470703 78.60289551 49.91796875 79.66796875 C50.44156982 80.57828857 50.9651709 81.4886084 51.50463867 82.42651367 C52.53780116 84.20456523 53.60273695 85.9643965 54.69262695 87.70825195 C56 90 56 90 56 92 C16.07 92 -23.86 92 -65 92 C-63.57181199 87.71543596 -62.48701477 84.8089992 -60.26953125 81.078125 C-59.72159912 80.1485498 -59.17366699 79.21897461 -58.60913086 78.26123047 C-58.01624268 77.26752441 -57.42335449 76.27381836 -56.8125 75.25 C-55.53835577 73.09156287 -54.2649432 70.93269369 -52.9921875 68.7734375 C-52.3331543 67.65807617 -51.67412109 66.54271484 -50.99511719 65.39355469 C-47.77091662 59.9094152 -44.60645686 54.39117952 -41.4375 48.875 C-35.19031326 38.02317082 -28.87489235 27.2128428 -22.46118164 16.45849609 C-21.43175395 14.72644315 -20.41088282 12.98929051 -19.39624023 11.24853516 C-18.87102783 10.35440918 -18.34581543 9.4602832 -17.8046875 8.5390625 C-17.33401855 7.73162598 -16.86334961 6.92418945 -16.37841797 6.09228516 C-12.43077258 0.10019855 -6.7602795 -1.30502787 0 0 Z " fill="#D9A828" transform="translate(360,269)"/>
<path d="M0 0 C1.2065625 -0.01933594 1.2065625 -0.01933594 2.4375 -0.0390625 C8.29454639 1.47876964 11.15603541 5.5853548 14.15625 10.51953125 C15.28244294 12.48558266 16.3963668 14.45869672 17.5 16.4375 C18.73662942 18.60697023 19.97361876 20.77623533 21.2109375 22.9453125 C21.83838867 24.05422852 22.46583984 25.16314453 23.11230469 26.30566406 C26.06804105 31.50305046 29.09987569 36.65531117 32.125 41.8125 C37.04085296 50.22580316 41.89862466 58.67052994 46.71630859 67.14038086 C50.42773628 73.65520128 54.21254238 80.12423657 58.05566406 86.56225586 C61 91.51969307 61 91.51969307 61 92.625 C20.74 92.625 -19.52 92.625 -61 92.625 C-57.20147028 85.02794055 -53.42813555 77.73575755 -49.0625 70.5 C-47.91280723 68.57496788 -46.76442377 66.64915335 -45.6171875 64.72265625 C-44.72725098 63.22822998 -44.72725098 63.22822998 -43.81933594 61.70361328 C-40.72930534 56.47477729 -37.71203525 51.20439053 -34.6875 45.9375 C-32.79138928 42.65039612 -30.89322067 39.36449079 -28.99414062 36.07910156 C-27.61753435 33.69464691 -26.24365241 31.30879164 -24.87304688 28.92089844 C-23.08618581 25.80989761 -21.2869824 22.70631353 -19.47988892 19.60702515 C-18.46330514 17.85692486 -17.45842075 16.10004521 -16.45385742 14.34301758 C-7.98255573 -0.12792557 -7.98255573 -0.12792557 0 0 Z " fill="#DFA72F" transform="translate(512,268.375)"/>
<path d="M0 0 C1.64032345 -0.00159056 3.28064624 -0.0040566 4.92096722 -0.00731641 C9.40483172 -0.01369975 13.88860523 -0.00768507 18.3724637 0.00044787 C23.21798257 0.00704917 28.06349166 0.00207094 32.90901184 -0.00143433 C42.39490211 -0.00646822 51.88075743 -0.00084388 61.36664335 0.00841597 C72.42914411 0.01882427 83.4916374 0.01872909 94.55414213 0.01824339 C114.30889873 0.01774301 134.06363914 0.02689568 153.81838989 0.04142761 C172.95218196 0.05549534 192.08595977 0.06259916 211.21975708 0.06193542 C212.39680489 0.06189547 213.5738527 0.06185551 214.78656863 0.06181435 C215.9616504 0.06177399 217.13673217 0.06173364 218.34742248 0.06169206 C240.16811202 0.0610002 261.98879555 0.06690627 283.80948313 0.07584528 C291.5042031 0.07884954 299.19892194 0.07992342 306.89364243 0.08037758 C316.29036373 0.0810634 325.68707489 0.08557846 335.0837919 0.09471039 C339.87015323 0.09929358 344.6565017 0.10238693 349.44286537 0.10111618 C382.43273716 0.09460448 382.43273716 0.09460448 395.34820557 0.63131714 C396.57857066 0.67676264 396.57857066 0.67676264 397.83379161 0.72312623 C401.54170577 0.91562829 404.51260366 1.19514718 407.67092896 3.24723816 C404.70103996 4.73218266 402.041607 4.36560001 398.72612381 4.35911274 C397.99961302 4.3590682 397.27310222 4.35902366 396.52457595 4.35897776 C394.06513104 4.35760337 391.60576183 4.34903182 389.14633179 4.34057617 C387.37521822 4.33815019 385.60410399 4.33617453 383.83298945 4.33461303 C379.96926169 4.3302239 376.10555763 4.32261617 372.24184036 4.31261063 C365.95641802 4.29634075 359.67099592 4.28687906 353.38555908 4.27825928 C344.25990431 4.26511521 335.13425985 4.24876895 326.00861359 4.23070717 C311.59029357 4.20255632 297.1719708 4.185854 282.75363159 4.17123413 C277.82437512 4.1661093 272.8951187 4.16093536 267.96586227 4.15576458 C266.73388902 4.15447855 265.50191577 4.15319252 264.23261 4.15186751 C250.19967794 4.13712532 236.16674822 4.12064736 222.13381958 4.10295105 C220.85056009 4.10133631 219.56730061 4.09972156 218.24515447 4.09805789 C197.44650058 4.07151888 176.64787899 4.03376454 155.84924927 3.99276248 C134.51226942 3.951056 113.17530663 3.92460861 91.83828998 3.91155452 C78.66835844 3.9029469 65.49856426 3.88186871 52.3286812 3.84492578 C43.30574548 3.82068464 34.28286845 3.81095371 25.2599006 3.81274585 C20.05006805 3.81332479 14.84045706 3.80729561 9.63067245 3.78387451 C4.86363942 3.762576 0.09696452 3.75962724 -4.67009822 3.77142986 C-6.39692726 3.77242881 -8.12377612 3.76661218 -9.85055479 3.75338421 C-12.19444596 3.73640809 -14.5370187 3.74402704 -16.88090134 3.75784016 C-18.18377681 3.7557792 -19.48665227 3.75371825 -20.82900882 3.75159484 C-26.10876483 4.49926034 -29.16277778 6.88656269 -32.57907104 10.87223816 C-33.44532104 12.04786316 -33.44532104 12.04786316 -34.32907104 13.24723816 C-34.98907104 13.90723816 -35.64907104 14.56723816 -36.32907104 15.24723816 C-35.80297855 11.45937219 -34.94803193 9.07571592 -32.32907104 6.24723816 C-31.66907104 6.24723816 -31.00907104 6.24723816 -30.32907104 6.24723816 C-30.32907104 5.58723816 -30.32907104 4.92723816 -30.32907104 4.24723816 C-29.33907104 4.24723816 -28.34907104 4.24723816 -27.32907104 4.24723816 C-27.32907104 3.58723816 -27.32907104 2.92723816 -27.32907104 2.24723816 C-18.2259946 0.11673244 -9.29251676 -0.03280667 0 0 Z " fill="#FFF1DD" transform="translate(321.3290710449219,622.7527618408203)"/>
<path d="M0 0 C5.90981096 5.75827735 5.90981096 5.75827735 6.13422108 8.8479557 C6.1406313 9.98000215 6.1406313 9.98000215 6.14717102 11.13491821 C6.15790398 12.43430832 6.15790398 12.43430832 6.16885376 13.75994873 C6.17154266 14.71266663 6.17423157 15.66538452 6.17700195 16.64697266 C6.18357315 17.64878571 6.19014435 18.65059875 6.19691467 19.68276978 C6.216681 23.00986806 6.22831928 26.33692108 6.23828125 29.6640625 C6.24235678 30.79962963 6.2464323 31.93519676 6.25063133 33.10517502 C6.27150883 39.11845469 6.28580184 45.13171143 6.29516602 51.14501953 C6.30621848 57.35245014 6.34060054 63.55952108 6.38033772 69.76682472 C6.40650733 74.54186665 6.41485832 79.31682306 6.41844749 84.09193039 C6.42331453 86.37961626 6.4349318 88.66729828 6.45348549 90.95491409 C6.47787763 94.16245045 6.47691108 97.3690591 6.4699707 100.57666016 C6.48918579 101.98751892 6.48918579 101.98751892 6.50878906 103.42687988 C6.45601728 110.13888485 5.41025751 115.47727159 0.61598319 120.42966193 C-6.41718045 125.67378797 -14.92911817 124.68372684 -23.27304077 124.61473083 C-25.05218958 124.61834515 -26.83133505 124.62415016 -28.61047041 124.63195282 C-33.49140003 124.64699903 -38.37180422 124.63089474 -43.25269246 124.6096462 C-48.51918295 124.59216005 -53.78562127 124.60353458 -59.05212402 124.61131287 C-69.36430992 124.62198515 -79.67629163 124.60603768 -89.9884464 124.5811746 C-101.99006506 124.55325908 -113.99164225 124.55190167 -125.993288 124.55173159 C-147.39872666 124.55054424 -168.80407141 124.52556889 -190.20947266 124.48706055 C-210.99724453 124.44968737 -231.78494811 124.42846306 -252.57275391 124.42553711 C-253.85392941 124.4253543 -255.13510491 124.42517149 -256.45510392 124.42498314 C-257.73403152 124.42480417 -259.01295912 124.4246252 -260.3306421 124.4244408 C-262.90546823 124.42407539 -265.48029435 124.42370302 -268.05512047 124.42332363 C-269.95967807 124.42304536 -269.95967807 124.42304536 -271.90271159 124.42276147 C-291.6942169 124.41919515 -311.4857116 124.40074852 -331.27720618 124.38083039 C-338.45923915 124.37379899 -345.64126962 124.36902138 -352.82330529 124.36586904 C-364.2095986 124.36082916 -375.59584429 124.34945371 -386.98211305 124.32456874 C-392.18736257 124.31331557 -397.39256508 124.30523412 -402.59782791 124.30570221 C-407.35571427 124.30600894 -412.1134892 124.29715471 -416.87134643 124.28073419 C-418.59925543 124.27639082 -420.32717681 124.27546318 -422.05508916 124.27816027 C-424.39045364 124.28129302 -426.72545471 124.27230542 -429.06078148 124.26006222 C-431.01249435 124.25713583 -431.01249435 124.25713583 -433.00363576 124.25415033 C-436 124 -436 124 -438 122 C-436.63430394 122.00170874 -436.63430394 122.00170874 -435.24101806 122.003452 C-381.32192263 122.07053463 -327.40283161 122.12203355 -273.48370282 122.15319599 C-267.01468853 122.15694827 -260.54567432 122.16083122 -254.07666016 122.16479492 C-252.14480157 122.16597532 -252.14480157 122.16597532 -250.17391554 122.16717956 C-229.29942401 122.18024609 -208.42495719 122.20390679 -187.55048034 122.23145839 C-166.14350765 122.25947791 -144.73654793 122.27616894 -123.32955766 122.28226548 C-110.11218497 122.2863891 -96.89488207 122.2994297 -83.67753085 122.3237494 C-74.62328792 122.33956399 -65.56908125 122.34441009 -56.51482549 122.34050413 C-51.28504388 122.3385759 -46.05538453 122.34160493 -40.82562447 122.35761642 C-36.04262346 122.37215378 -31.2598276 122.3729927 -26.4768174 122.36269668 C-24.74189492 122.36142309 -23.00695993 122.36528074 -21.27206227 122.37464955 C-18.92221314 122.38660648 -16.5731145 122.38025094 -14.22327805 122.36914349 C-12.26164282 122.37085223 -12.26164282 122.37085223 -10.2603786 122.37259549 C-6.76232351 121.97283837 -5.61195933 121.22210656 -3 119 C-2.01 119 -1.02 119 0 119 C0.309375 118.030625 0.61875 117.06125 0.9375 116.0625 C2 113 2 113 3 112 C3.10184531 110.63048089 3.13517466 109.25578275 3.14044189 107.88249207 C3.14615204 106.99499771 3.15186218 106.10750336 3.15774536 105.19311523 C3.15886322 104.21181641 3.15998108 103.23051758 3.16113281 102.21948242 C3.16609772 101.19188309 3.17106262 100.16428375 3.17617798 99.10554504 C3.19084356 95.68884626 3.19760918 92.27219391 3.203125 88.85546875 C3.20887319 86.48993426 3.21463096 84.1243998 3.22039795 81.75886536 C3.2309207 76.79130841 3.2367549 71.82376771 3.24023438 66.85620117 C3.2457193 60.48362881 3.26974213 54.1112701 3.29820633 47.73876476 C3.3168099 42.84979115 3.32203711 37.9608692 3.32357025 33.07186317 C3.32660287 30.72227117 3.33465178 28.37268021 3.34775543 26.02312279 C3.36476673 22.73814938 3.36294744 19.45370048 3.35644531 16.16870117 C3.3656601 15.19347504 3.37487488 14.2182489 3.3843689 13.21347046 C3.37879974 12.31751663 3.37323059 11.42156281 3.36749268 10.49845886 C3.36969252 9.33341717 3.36969252 9.33341717 3.3719368 8.14483929 C2.90628382 5.45956911 1.6833811 4.10144171 0 2 C0 1.34 0 0.68 0 0 Z " fill="#E3A874" transform="translate(733,631)"/>
<path d="M0 0 C0.87059555 -0.00571014 1.7411911 -0.01142029 2.63816833 -0.01730347 C3.59559937 -0.01842133 4.5530304 -0.01953918 5.53947449 -0.02069092 C6.54610641 -0.02565582 7.55273834 -0.03062073 8.58987427 -0.03573608 C11.93139827 -0.050382 15.27287479 -0.05716393 18.61442566 -0.06268311 C20.93129478 -0.06843277 23.24816388 -0.07419053 25.56503296 -0.07995605 C30.42826052 -0.09047311 35.29147152 -0.09631109 40.15470886 -0.09979248 C46.38927264 -0.10527717 52.62361802 -0.12930187 58.85811329 -0.15776443 C63.64590089 -0.17637997 68.43363579 -0.18159585 73.22145653 -0.18312836 C75.51998272 -0.18615811 77.81850791 -0.19419743 80.11699867 -0.20731354 C83.33221205 -0.22435024 86.54689066 -0.22249934 89.76213074 -0.21600342 C91.18916824 -0.22982559 91.18916824 -0.22982559 92.64503479 -0.243927 C97.55134208 -0.21284365 100.83320465 -0.02999154 104.84489441 3.14044189 C103.85489441 3.47044189 102.86489441 3.80044189 101.84489441 4.14044189 C100.85489441 3.48044189 99.86489441 2.82044189 98.84489441 2.14044189 C96.85525584 1.83554364 96.85525584 1.83554364 94.65219116 1.87301636 C93.79849442 1.86448639 92.94479767 1.85595642 92.06523132 1.84716797 C90.66488647 1.84852753 90.66488647 1.84852753 89.23625183 1.84991455 C87.75775505 1.83983871 87.75775505 1.83983871 86.24938965 1.82955933 C82.98299653 1.81052385 79.71680833 1.80665215 76.45036316 1.80450439 C74.18215856 1.79807973 71.91395479 1.79135162 69.64575195 1.78433228 C64.88683654 1.77234519 60.12799378 1.76865287 55.36906433 1.76983643 C49.27241452 1.77003956 43.17623118 1.74274949 37.07969189 1.70829201 C32.39307518 1.68604717 27.70657109 1.68199817 23.019907 1.68305588 C20.77244269 1.68069582 18.52497547 1.67184959 16.2775631 1.65639114 C13.13195096 1.63678308 9.98734918 1.64254965 6.84172058 1.65460205 C5.45048477 1.63774353 5.45048477 1.63774353 4.03114319 1.62054443 C-1.48881186 1.67425486 -4.91113552 2.25759679 -9.15510559 6.14044189 C-12.85015896 11.32163761 -12.5637178 16.43587122 -12.49568176 22.55206299 C-12.49611984 23.58681763 -12.49655792 24.62157227 -12.49700928 25.68768311 C-12.49492479 29.09660934 -12.47160916 32.50503942 -12.44807434 35.91387939 C-12.44247719 38.28184745 -12.43820766 40.64981898 -12.43521118 43.01779175 C-12.42377184 49.24196001 -12.39431218 55.46591735 -12.36109924 61.69000244 C-12.33037892 68.04454699 -12.31670163 74.3991257 -12.30158997 80.75372314 C-12.26944186 93.21605526 -12.21825627 105.67823102 -12.15510559 118.14044189 C-14.89979378 115.55975513 -15.38977997 113.40743223 -15.54278564 109.78952026 C-15.56367236 107.96861747 -15.5678854 106.14747872 -15.55915833 104.32647705 C-15.56602158 103.33091293 -15.57288483 102.33534882 -15.57995605 101.30961609 C-15.59826841 98.01610073 -15.59437973 94.72305978 -15.58869934 91.42950439 C-15.5932594 89.14030807 -15.59856445 86.85111312 -15.60458374 84.56192017 C-15.61352388 79.76186567 -15.61108183 74.96197746 -15.60115051 70.16192627 C-15.58966707 64.01259363 -15.60985868 57.86383575 -15.63906765 51.71457863 C-15.65742135 46.98591467 -15.65713867 42.2573886 -15.65143013 37.52869797 C-15.65127678 35.2617042 -15.65733271 32.99470116 -15.6697216 30.72774124 C-15.68461144 27.55586052 -15.67396799 24.38504342 -15.65681458 21.2131958 C-15.66648254 20.27792557 -15.67615051 19.34265533 -15.68611145 18.37904358 C-15.62291481 12.79382649 -14.90231549 9.55932326 -11.15510559 5.14044189 C-7.36179845 1.79871894 -5.0401308 0.01976378 0 0 Z " fill="#CAA540" transform="translate(628.1551055908203,428.85955810546875)"/>
<path d="M0 0 C0.33 0 0.66 0 1 0 C1.06951451 13.32587428 1.1228188 26.6517054 1.15543652 39.97772408 C1.17109147 46.16555308 1.19232698 52.35325802 1.22631836 58.54101562 C1.25891736 64.5126861 1.27685429 70.48423725 1.28463173 76.45598984 C1.29017422 78.73415887 1.3009973 81.01232138 1.31719017 83.29043961 C1.3389712 86.4816931 1.34196658 89.67245365 1.34057617 92.86376953 C1.351362 93.80532394 1.36214783 94.74687836 1.3732605 95.71696472 C1.34542265 101.62276924 0.6732589 106.13627991 -3.53515625 110.64453125 C-7.37714448 113.58252225 -9.42239913 115.12598759 -14.22671509 115.12025452 C-15.11295059 115.12162918 -15.9991861 115.12300385 -16.91227722 115.12442017 C-17.88691422 115.12082489 -18.86155121 115.11722961 -19.86572266 115.11352539 C-20.89013962 115.11367142 -21.91455658 115.11381744 -22.97001648 115.1139679 C-26.3680531 115.11326926 -29.76603542 115.10547911 -33.1640625 115.09765625 C-35.51532969 115.0957919 -37.86659727 115.09436808 -40.21786499 115.09336853 C-46.41570095 115.08954471 -52.6135136 115.07971556 -58.81134033 115.06866455 C-65.13203618 115.05844753 -71.45273578 115.05387028 -77.7734375 115.04882812 C-90.18230193 115.03809319 -102.59114903 115.02101838 -115 115 C-115 114.67 -115 114.34 -115 114 C-113.73101868 113.99191315 -112.46203735 113.98382629 -111.15460205 113.97549438 C-99.20624775 113.89807082 -87.25800786 113.81034105 -75.30980301 113.71247292 C-69.16684485 113.66248829 -63.02390408 113.61615832 -56.88085938 113.578125 C-50.95450811 113.54129975 -45.02830149 113.4949471 -39.10207367 113.44193649 C-36.839043 113.4233779 -34.5759813 113.40827539 -32.31290436 113.39665604 C-29.14757924 113.37981885 -25.98258646 113.35078949 -22.81738281 113.31884766 C-21.87798859 113.31668747 -20.93859436 113.31452728 -19.97073364 113.31230164 C-19.10699127 113.30113815 -18.2432489 113.28997467 -17.35333252 113.2784729 C-16.60483662 113.27294214 -15.85634071 113.26741138 -15.08516312 113.26171303 C-12.70599544 112.96309889 -11.11935415 112.08721393 -9 111 C-8.01 111 -7.02 111 -6 111 C-5.505 109.515 -5.505 109.515 -5 108 C-4.34 108 -3.68 108 -3 108 C-3 107.01 -3 106.02 -3 105 C-2.34 105 -1.68 105 -1 105 C-0.67 70.35 -0.34 35.7 0 0 Z " fill="#CCAF50" transform="translate(738,439)"/>
<path d="M0 0 C1.01218094 -0.00189835 2.02436188 -0.00379669 3.06721497 -0.00575256 C6.39604561 -0.00944243 9.72465572 0.00121558 13.0534668 0.01245117 C15.37037633 0.01364373 17.68728634 0.01409597 20.00419617 0.01383972 C24.85015913 0.01540131 29.69604788 0.02366871 34.54199219 0.03710938 C40.76430145 0.05414618 46.98652958 0.05792218 53.20885944 0.05716419 C57.98793822 0.05743553 62.76699915 0.06291008 67.54607201 0.07016563 C69.84148206 0.07335434 72.13689414 0.07532018 74.43230629 0.07605934 C77.63068754 0.07821807 80.8289812 0.0869508 84.02734375 0.09765625 C84.98163269 0.09720306 85.93592163 0.09674988 86.91912842 0.09628296 C87.78683365 0.10054794 88.65453888 0.10481293 89.54853821 0.10920715 C90.30453465 0.110883 91.0605311 0.11255884 91.83943653 0.11428547 C93.69018555 0.24291992 93.69018555 0.24291992 95.69018555 1.24291992 C95.69018555 1.90291992 95.69018555 2.56291992 95.69018555 3.24291992 C96.35018555 3.24291992 97.01018555 3.24291992 97.69018555 3.24291992 C97.36018555 4.23291992 97.03018555 5.22291992 96.69018555 6.24291992 C95.76314819 5.5119384 95.76314819 5.5119384 94.81738281 4.76618958 C90.39824997 2.6136132 86.50906829 2.83141127 81.6550293 2.87060547 C80.64795929 2.8669548 79.64088928 2.86330414 78.603302 2.85954285 C75.27792441 2.85144398 71.95303511 2.86504234 68.62768555 2.87963867 C66.31510417 2.88015736 64.00252235 2.87963933 61.68994141 2.87812805 C56.84457818 2.87821775 51.99938143 2.88864166 47.15405273 2.90673828 C40.9431408 2.92942515 34.73247212 2.92996917 28.52153015 2.92322063 C23.74660073 2.91987917 18.97172676 2.92651413 14.19680786 2.93634987 C11.90667003 2.94019908 9.61652602 2.94135124 7.3263855 2.93976402 C4.12591803 2.93939318 0.92576242 2.95201942 -2.2746582 2.96826172 C-3.22130341 2.9657843 -4.16794861 2.96330688 -5.14328003 2.96075439 C-9.63415897 2.99712836 -13.23544192 3.10471752 -17.30981445 5.24291992 C-17.30981445 4.25291992 -17.30981445 3.26291992 -17.30981445 2.24291992 C-11.43693942 0.21755362 -6.18321616 -0.03680132 0 0 Z " fill="#F8EBB8" transform="translate(636.309814453125,426.757080078125)"/>
<path d="M0 0 C0.99 0.33 1.98 0.66 3 1 C2.67509929 1.56998466 2.35019857 2.13996933 2.01545238 2.72722626 C0.92449695 5.16899006 0.75083514 6.70943943 0.75276184 9.36437988 C0.74856735 10.23075577 0.74437286 11.09713165 0.74005127 11.98976135 C0.74567078 12.93222214 0.75129028 13.87468292 0.75708008 14.84570312 C0.75518173 15.84447983 0.75328339 16.84325653 0.75132751 17.87229919 C0.74762142 21.17536253 0.75832202 24.47820619 0.76953125 27.78125 C0.7707233 30.07523574 0.77117616 32.36922197 0.7709198 34.66320801 C0.7724844 39.47162938 0.78077222 44.27997627 0.79418945 49.08837891 C0.81117918 55.25564835 0.81500375 61.42283593 0.81424427 67.59012604 C0.81451605 72.32725813 0.81999856 77.06437228 0.82724571 81.80149841 C0.83043054 84.07571782 0.83239936 86.34993925 0.83313942 88.62416077 C0.83530492 91.8009081 0.84405386 94.97756824 0.85473633 98.15429688 C0.85428314 99.09675766 0.85382996 100.03921844 0.85336304 101.01023865 C0.85762802 101.87661453 0.86189301 102.74299042 0.86628723 103.63562012 C0.86796308 104.38629509 0.86963892 105.13697006 0.87136555 105.91039276 C1.00307938 108.0500231 1.41422477 109.94207087 2 112 C1.01 111.67 0.02 111.34 -1 111 C-2.15554078 108.68891844 -2.12809588 107.37183431 -2.13371277 104.80020142 C-2.13797775 103.91974655 -2.14224274 103.03929169 -2.14663696 102.13215637 C-2.14618378 101.16380356 -2.14573059 100.19545074 -2.14526367 99.19775391 C-2.14862228 98.17976212 -2.1519809 97.16177032 -2.15544128 96.1129303 C-2.16497161 92.73412876 -2.16689547 89.35537666 -2.16796875 85.9765625 C-2.17118 83.63487731 -2.17454397 81.29319233 -2.17805481 78.95150757 C-2.18405138 74.03700292 -2.18589418 69.12251587 -2.18530273 64.20800781 C-2.18520111 57.90389249 -2.19885141 51.59988979 -2.21607494 45.29580116 C-2.22718205 40.45744303 -2.22922233 35.61911223 -2.22869301 30.78074265 C-2.22987515 28.45627835 -2.23430995 26.13181339 -2.24202538 23.8073616 C-2.2517987 20.55850544 -2.24895759 17.30989509 -2.24291992 14.06103516 C-2.24853943 13.0967308 -2.25415894 12.13242645 -2.25994873 11.13890076 C-2.25575424 10.25280624 -2.25155975 9.36671173 -2.24723816 8.45376587 C-2.24778293 7.68574457 -2.24832769 6.91772327 -2.24888897 6.1264286 C-1.96743726 3.72179429 -1.19470046 2.08912564 0 0 Z " fill="#FEF6CB" transform="translate(613,435)"/>
<path d="M0 0 C0.66 0 1.32 0 2 0 C2.09260248 13.49077412 2.16371565 26.98147287 2.20724869 40.47249985 C2.22814037 46.73666341 2.2564874 53.00060985 2.30175781 59.26464844 C2.34515836 65.3076415 2.36912519 71.35042546 2.37950897 77.39356232 C2.38691069 79.70130964 2.40136418 82.00904528 2.42292023 84.3167038 C2.45187649 87.54439701 2.45595916 90.77122164 2.45410156 93.99902344 C2.47567322 95.43616699 2.47567322 95.43616699 2.49768066 96.90234375 C2.45705348 103.40849718 2.45705348 103.40849718 -0.02838135 106.62506104 C-0.6790155 107.07879089 -1.32964966 107.53252075 -2 108 C-1.83923477 107.38171829 -1.67846954 106.76343658 -1.51283264 106.12641907 C-0.79321293 101.73934891 -0.82170991 97.41646068 -0.79467773 92.97729492 C-0.78477814 91.97194702 -0.77487854 90.96659912 -0.76467896 89.93078613 C-0.73313935 86.61403747 -0.70833629 83.2972745 -0.68359375 79.98046875 C-0.66301772 77.67832572 -0.64202107 75.37618642 -0.62062073 73.0740509 C-0.56546715 67.01932798 -0.51602824 60.96457135 -0.46777344 54.90979004 C-0.4175094 48.7295431 -0.36184893 42.54934503 -0.30664062 36.36914062 C-0.19914116 24.24613552 -0.09767794 12.12308794 0 0 Z " fill="#FEF4C6" transform="translate(739,439)"/>
<path d="M0 0 C0.66 0.33 1.32 0.66 2 1 C-11.74983887 25.14973658 -25.62525319 49.21502193 -40 73 C-41 70 -41 70 -40 67 C-39.34 67 -38.68 67 -38 67 C-37.9175 66.319375 -37.835 65.63875 -37.75 64.9375 C-36.80090858 61.22022526 -34.97784971 58.23983591 -33 55 C-32.46375 54.030625 -31.9275 53.06125 -31.375 52.0625 C-30.92125 51.381875 -30.4675 50.70125 -30 50 C-29.34 50 -28.68 50 -28 50 C-28 49.01 -28 48.02 -28 47 C-27.34 47 -26.68 47 -26 47 C-26 45.68 -26 44.36 -26 43 C-25.34 43 -24.68 43 -24 43 C-24 42.01 -24 41.02 -24 40 C-23.34 40 -22.68 40 -22 40 C-21.88011719 39.27167969 -21.76023437 38.54335938 -21.63671875 37.79296875 C-19.83549228 29.89188333 -14.72913729 21.51816577 -10 15 C-9.34 15 -8.68 15 -8 15 C-8 14.01 -8 13.02 -8 12 C-7.34 12 -6.68 12 -6 12 C-6 10.68 -6 9.36 -6 8 C-5.34 8 -4.68 8 -4 8 C-3.855625 7.38125 -3.71125 6.7625 -3.5625 6.125 C-3 4 -3 4 -2 2 C-1.34 2 -0.68 2 0 2 C0 1.34 0 0.68 0 0 Z " fill="#FDF7D7" transform="translate(491,288)"/>
<path d="M0 0 C1 3 1 3 -0.51171875 6.109375 C-1.22671332 7.3289933 -1.95246597 8.5423531 -2.6875 9.75 C-3.21633789 10.64332031 -3.21633789 10.64332031 -3.75585938 11.5546875 C-4.47174577 12.76397275 -5.19036394 13.97164472 -5.91162109 15.17773438 C-8.61699131 19.70731789 -11.02906932 24.0726733 -13 29 C24.95 29 62.9 29 102 29 C101.505 26.03 101.505 26.03 101 23 C103.76390737 25.40339772 104.04065919 26.16263678 105 30 C65.07 30 25.14 30 -16 30 C-14.4738329 25.42149871 -13.13550892 22.21095144 -10.7421875 18.1640625 C-10.11699219 17.10058594 -9.49179687 16.03710938 -8.84765625 14.94140625 C-8.19667969 13.84699219 -7.54570312 12.75257813 -6.875 11.625 C-6.21628906 10.50738281 -5.55757813 9.38976562 -4.87890625 8.23828125 C-3.25763124 5.48916275 -1.63119987 2.74323718 0 0 Z " fill="#CFAF49" transform="translate(311,331)"/>
<path d="M0 0 C0.33 0 0.66 0 1 0 C1.00808685 1.23504272 1.01617371 2.47008545 1.02450562 3.74255371 C1.10207112 15.39533965 1.18983674 27.04801034 1.28752708 38.70064545 C1.33742158 44.69103185 1.38375232 50.6814012 1.421875 56.671875 C1.45881414 62.45560028 1.50519768 68.23918051 1.55806351 74.02278137 C1.57656159 76.22668406 1.59168638 78.43061778 1.60334396 80.63456726 C1.62028485 83.72723162 1.64933902 86.81956709 1.68115234 89.91210938 C1.68331253 90.81842102 1.68547272 91.72473267 1.68769836 92.6585083 C1.75882558 98.08958578 2.48167278 102.77996122 4 108 C4.66 108 5.32 108 6 108 C7.49524178 110.2727675 8.78399715 112.5679943 10 115 C5.11234467 113.64231796 3.47408902 111.32965579 1 107 C0.07142216 104.21426647 -0.1237216 102.56520886 -0.12025452 99.69099426 C-0.12162918 98.81179825 -0.12300385 97.93260223 -0.12442017 97.02676392 C-0.12082489 96.06507294 -0.11722961 95.10338196 -0.11352539 94.11254883 C-0.11367142 93.09773941 -0.11381744 92.08292999 -0.1139679 91.03736877 C-0.11327026 87.67723465 -0.10548478 84.31715571 -0.09765625 80.95703125 C-0.09579154 78.62961355 -0.09436789 76.30219546 -0.09336853 73.97477722 C-0.08954751 67.84435953 -0.07972074 61.71396547 -0.06866455 55.58355713 C-0.05844152 49.32979655 -0.05386899 43.07603215 -0.04882812 36.82226562 C-0.03809813 24.54816669 -0.02102666 12.27408531 0 0 Z " fill="#DEA774" transform="translate(285,638)"/>
<path d="M0 0 C5.44876003 1.72066106 10.71169451 3.84705349 16 6 C16 6.66 16 7.32 16 8 C22.00765489 9.29782092 28.00911432 9.22101476 34.125 9.25 C35.72214844 9.2809375 35.72214844 9.2809375 37.3515625 9.3125 C45.87021455 9.35385268 53.7957014 8.16681052 61.69970703 4.87597656 C64.30499714 3.88385377 65.42894711 4.04775819 68 5 C65.58459694 5.98238408 63.16778178 6.96100218 60.75 7.9375 C59.72712891 8.35418945 59.72712891 8.35418945 58.68359375 8.77929688 C45.5058889 14.08876048 28.13950418 14.30327003 14.77734375 9.28125 C1.60146252 3.20292505 1.60146252 3.20292505 0 0 Z " fill="#DC7360" transform="translate(311,542)"/>
<path d="M0 0 C2.94422885 1.76653731 5.02685648 3.64346976 7.1875 6.3125 C7 8.625 7 8.625 6.1875 10.3125 C3.1875 6.5625 3.1875 6.5625 3.1875 4.3125 C-1.23570131 2.02955739 -5.93537875 1.3675077 -10.8125 2.3125 C-16.82352442 5.28237373 -19.01739291 9.51572031 -21.9375 15.25 C-24.56778498 20.29477259 -27.03397632 25.0028935 -30.8125 29.3125 C-30.8125 27.3325 -30.8125 25.3525 -30.8125 23.3125 C-30.173125 23.065 -29.53375 22.8175 -28.875 22.5625 C-26.65388939 21.51371972 -26.65388939 21.51371972 -26.125 19.375 C-26.021875 18.694375 -25.91875 18.01375 -25.8125 17.3125 C-25.4825 16.3225 -25.1525 15.3325 -24.8125 14.3125 C-24.1525 14.3125 -23.4925 14.3125 -22.8125 14.3125 C-22.5959375 13.136875 -22.5959375 13.136875 -22.375 11.9375 C-21.8125 9.3125 -21.8125 9.3125 -20.8125 7.3125 C-20.1525 7.3125 -19.4925 7.3125 -18.8125 7.3125 C-18.709375 6.714375 -18.60625 6.11625 -18.5 5.5 C-17.71254672 2.99446685 -16.80346139 1.98490757 -14.8125 0.3125 C-10.49321027 -1.84714486 -4.57920453 -1.11936111 0 0 Z " fill="#FEFBDF" transform="translate(361.8125,267.6875)"/>
<path d="M0 0 C0.33 0 0.66 0 1 0 C1.0231306 13.52537105 1.04091877 27.05073742 1.05181217 40.57612419 C1.05703942 46.85593233 1.06413422 53.13572697 1.07543945 59.41552734 C1.08627391 65.47145852 1.09227803 71.52737669 1.09487724 77.5833168 C1.09673048 79.89826792 1.10034916 82.2132183 1.10573006 84.52816391 C1.11294787 87.76081656 1.11399062 90.99341486 1.11352539 94.22607422 C1.11712067 95.19136047 1.12071594 96.15664673 1.12442017 97.15118408 C1.1230455 98.02900543 1.12167084 98.90682678 1.12025452 99.81124878 C1.12163721 100.95888104 1.12163721 100.95888104 1.12304783 102.1296978 C1 104 1 104 0 106 C-0.66 106 -1.32 106 -2 106 C-1.75739488 105.14468122 -1.75739488 105.14468122 -1.50988865 104.27208328 C-0.99697983 101.986542 -0.86194353 99.98544921 -0.84178162 97.64666748 C-0.8319928 96.78292511 -0.82220398 95.91918274 -0.81211853 95.02926636 C-0.80636307 94.08987213 -0.8006076 93.15047791 -0.79467773 92.18261719 C-0.78477814 91.18716888 -0.77487854 90.19172058 -0.76467896 89.16610718 C-0.73309605 85.8763873 -0.70831911 82.58665298 -0.68359375 79.296875 C-0.66302146 77.01572291 -0.64202491 74.73457461 -0.62062073 72.45343018 C-0.5654285 66.44965687 -0.5160066 60.44584932 -0.46777344 54.4420166 C-0.41753766 48.31548007 -0.36186242 42.18899326 -0.30664062 36.0625 C-0.19909387 24.04170914 -0.09764111 12.02087511 0 0 Z " fill="#F2A868" transform="translate(737,641)"/>
<path d="M0 0 C0.33 0.66 0.66 1.32 1 2 C0.04408777 3.60456696 -0.91402624 5.20786049 -1.8828125 6.8046875 C-3.58106784 10.14181862 -4.39540711 13.63197354 -5.2890625 17.25390625 C-6 20 -6 20 -7.07421875 22.90234375 C-8.12320596 26.41224611 -8.23161138 29.34276535 -8.1875 33 C-8.18105469 34.175625 -8.17460937 35.35125 -8.16796875 36.5625 C-8.01018745 39.79151268 -7.54610738 42.81870778 -7 46 C-6.9379225 47.62394748 -6.91287959 49.25005297 -6.9375 50.875 C-6.94652344 51.65617187 -6.95554687 52.43734375 -6.96484375 53.2421875 C-6.97644531 53.82226562 -6.98804688 54.40234375 -7 55 C-12.96419098 46.05371353 -12.13081344 33.3544005 -10.3125 23.13671875 C-8.34472355 15.76575614 -5.53920198 5.53920198 0 0 Z " fill="#DD7663" transform="translate(451,456)"/>
<path d="M0 0 C7.74592146 9.21076621 8.12023415 23.11652361 7.30126953 34.60302734 C6.49854961 40.98965956 4.30850054 47.02263253 2 53 C0.85128199 49.55384597 1.19583055 47.90109891 1.875 44.375 C2.05804688 43.39273438 2.24109375 42.41046875 2.4296875 41.3984375 C3 39 3 39 4 38 C5.03629376 27.25684981 4.74597553 16.61708185 0.875 6.49609375 C0 4 0 4 0 0 Z " fill="#D97868" transform="translate(404,464)"/>
<path d="M0 0 C0.66 0.66 1.32 1.32 2 2 C0.58318366 1.68817931 -0.83344651 1.37551263 -2.25 1.0625 C-3.03890625 0.88847656 -3.8278125 0.71445312 -4.640625 0.53515625 C-6.03233472 0.21948699 -7.41932545 -0.12202199 -8.78955078 -0.52075195 C-13.62660927 -1.56947581 -18.69667891 -1.22812066 -23.625 -1.25 C-24.76324219 -1.270625 -25.90148437 -1.29125 -27.07421875 -1.3125 C-33.49917409 -1.34200611 -38.85990302 -0.83087301 -44.89208984 1.45019531 C-47.31021294 2.08091262 -48.66241553 1.79839334 -51 1 C-49.43979133 0.34865075 -47.87671421 -0.29582964 -46.3125 -0.9375 C-45.44238281 -1.29714844 -44.57226562 -1.65679687 -43.67578125 -2.02734375 C-30.36547083 -6.86569017 -13.00210694 -5.08213595 0 0 Z " fill="#D86C59" transform="translate(528,433)"/>
<path d="M0 0 C0.99 0.33 1.98 0.66 3 1 C-2.9257971 11.71014968 -8.89405417 22.39134551 -15 33 C-15.66 33 -16.32 33 -17 33 C-17 32.01 -17 31.02 -17 30 C-16.34 30 -15.68 30 -15 30 C-14.34 27.36 -13.68 24.72 -13 22 C-12.34 22 -11.68 22 -11 22 C-11 20.68 -11 19.36 -11 18 C-10.34 18 -9.68 18 -9 18 C-8.896875 17.360625 -8.79375 16.72125 -8.6875 16.0625 C-8.3471875 15.0415625 -8.3471875 15.0415625 -8 14 C-7.01 13.67 -6.02 13.34 -5 13 C-5 11.68 -5 10.36 -5 9 C-4.34 9 -3.68 9 -3 9 C-3 8.01 -3 7.02 -3 6 C-2.34 6 -1.68 6 -1 6 C-1.020625 5.195625 -1.04125 4.39125 -1.0625 3.5625 C-1 1 -1 1 0 0 Z " fill="#FDF7D3" transform="translate(310,328)"/>
<path d="M0 0 C6.11852384 6.11852384 7.29500809 16.85793959 7.44482422 25.12182617 C7.42455241 32.7419983 6.86426344 39.58786825 5 47 C4.67 47 4.34 47 4 47 C3.97250234 45.62511713 3.9533836 44.25006609 3.9375 42.875 C3.92589844 42.10929687 3.91429687 41.34359375 3.90234375 40.5546875 C4 38 4 38 4.49609375 35.12109375 C5.03841568 31.76206105 5.13277297 28.58817567 5.125 25.1875 C5.12886719 23.47626953 5.12886719 23.47626953 5.1328125 21.73046875 C5.31071803 19.08674534 5.31071803 19.08674534 4 18 C3.87625 16.96875 3.7525 15.9375 3.625 14.875 C3.13262885 11.82229888 2.67906996 10.01131169 1.4375 7.3125 C0 4 0 4 0 0 Z " fill="#DB6D5B" transform="translate(559,463)"/>
<path d="M0 0 C1.42602539 -0.01160156 1.42602539 -0.01160156 2.88085938 -0.0234375 C8.61866205 -0.00761999 13.5606108 0.61307429 19.0625 2.25 C19.0625 2.91 19.0625 3.57 19.0625 4.25 C17.16371094 4.00636719 17.16371094 4.00636719 15.2265625 3.7578125 C9.95349592 3.17375072 4.73823909 3.10208614 -0.5625 3.125 C-1.46484375 3.12113281 -2.3671875 3.11726563 -3.296875 3.11328125 C-8.28502479 3.12055261 -13.02091308 3.40138363 -17.9375 4.25 C-17.9375 3.59 -17.9375 2.93 -17.9375 2.25 C-11.89158176 0.13686353 -6.37226648 -0.05163214 0 0 Z " fill="#FDE0D7" transform="translate(502.9375,426.75)"/>
<path d="M0 0 C0.66 0.33 1.32 0.66 2 1 C-0.08305577 4.68765686 -2.16649468 8.37509712 -4.25 12.0625 C-4.83652344 13.10083984 -5.42304688 14.13917969 -6.02734375 15.20898438 C-9.00580166 20.47985089 -11.98986031 25.74715723 -15 31 C-15.33 31 -15.66 31 -16 31 C-16 29.35 -16 27.7 -16 26 C-15.34 26 -14.68 26 -14 26 C-14 25.01 -14 24.02 -14 23 C-13.34 23 -12.68 23 -12 23 C-12 21.68 -12 20.36 -12 19 C-11.34 19 -10.68 19 -10 19 C-10 18.01 -10 17.02 -10 16 C-9.34 16 -8.68 16 -8 16 C-8.061875 15.236875 -8.12375 14.47375 -8.1875 13.6875 C-7.95938346 10.41782957 -7.32490452 10.15268937 -5 8 C-3.95377125 6.02379014 -2.94560065 4.0262871 -2 2 C-1.34 2 -0.68 2 0 2 C0 1.34 0 0.68 0 0 Z " fill="#FDF7D3" transform="translate(329,297)"/>
<path d="M0 0 C0.33 0 0.66 0 1 0 C1.31721872 3.38366636 0.9196283 5.18297387 -0.46875 8.34375 C-2.74174708 14.21683563 -2.56781129 20.27618712 -2.6875 26.5 C-2.72166016 27.70398438 -2.75582031 28.90796875 -2.79101562 30.1484375 C-2.87297195 33.09886516 -2.94229384 36.04901516 -3 39 C-3.33 39 -3.66 39 -4 39 C-7.15474616 26.27842199 -5.85081724 11.70163449 0 0 Z " fill="#D36958" transform="translate(290,466)"/>
<path d="M0 0 C0.33 0.66 0.66 1.32 1 2 C-0.21484375 4.8203125 -0.21484375 4.8203125 -1.9375 8.125 C-2.50339844 9.22070312 -3.06929688 10.31640625 -3.65234375 11.4453125 C-4.09707031 12.28835938 -4.54179687 13.13140625 -5 14 C-5.66 14 -6.32 14 -7 14 C-7.25910156 14.84949219 -7.51820313 15.69898438 -7.78515625 16.57421875 C-9.06612019 20.18645469 -10.63954385 23.42924918 -12.4375 26.8125 C-13.03433594 27.95332031 -13.63117188 29.09414063 -14.24609375 30.26953125 C-16 33 -16 33 -19 34 C-17.4838057 29.89346046 -15.51466725 26.21756006 -13.33984375 22.421875 C-12.9899086 21.80983215 -12.63997345 21.19778931 -12.2794342 20.56719971 C-11.54386137 19.28220202 -10.80672792 17.99809655 -10.06811523 16.71484375 C-8.93422994 14.74431712 -7.80561226 12.77084508 -6.67773438 10.796875 C-1.14763617 1.14763617 -1.14763617 1.14763617 0 0 Z " fill="#D4AB51" transform="translate(486,300)"/>
<path d="M0 0 C1.04478516 -0.01611328 2.08957031 -0.03222656 3.16601562 -0.04882812 C4.66745117 -0.04979492 4.66745117 -0.04979492 6.19921875 -0.05078125 C7.10889404 -0.05376221 8.01856934 -0.05674316 8.95581055 -0.05981445 C11.72168334 0.37714359 12.59282886 1.16033246 14.3125 3.3125 C13.17820557 3.30464478 13.17820557 3.30464478 12.02099609 3.29663086 C8.57650593 3.27577276 5.1320291 3.26281174 1.6875 3.25 C0.49769531 3.24162109 -0.69210937 3.23324219 -1.91796875 3.22460938 C-3.07167969 3.22138672 -4.22539062 3.21816406 -5.4140625 3.21484375 C-6.47189941 3.20960693 -7.52973633 3.20437012 -8.61962891 3.19897461 C-11.72112346 3.31374422 -14.64097657 3.73553718 -17.6875 4.3125 C-17.6875 3.6525 -17.6875 2.9925 -17.6875 2.3125 C-11.87084678 -0.20037428 -6.2187679 -0.01939728 0 0 Z " fill="#FFEDE5" transform="translate(347.6875,426.6875)"/>
<path d="M0 0 C3 1.3125 3 1.3125 5 3 C5.33 3.99 5.66 4.98 6 6 C5.34 6 4.68 6 4 6 C4 5.34 4 4.68 4 4 C0.15224631 2.18929238 -2.76129445 1.32180711 -7 2 C-8.99136791 3.43311833 -10.72655276 4.97718647 -12.484375 6.6875 C-14 8 -14 8 -16 8 C-16.28875 8.804375 -16.5775 9.60875 -16.875 10.4375 C-18 13 -18 13 -20 14 C-18.2178526 8.95058235 -15.91971369 4.64546888 -11.8125 1.125 C-7.82043614 -0.47182554 -4.24359703 -0.57657568 0 0 Z " fill="#CFAA4A" transform="translate(360,269)"/>
<path d="M0 0 C-3.4103253 2.01292371 -6.46718087 2.42865236 -10.375 2.875 C-17.03378926 3.83690797 -20.81574482 5.45170229 -25.25 10.625 C-26.11625 11.800625 -26.11625 11.800625 -27 13 C-27.66 13.66 -28.32 14.32 -29 15 C-28.4739075 11.21213403 -27.61896089 8.82847776 -25 6 C-24.34 6 -23.68 6 -23 6 C-23 5.34 -23 4.68 -23 4 C-22.01 4 -21.02 4 -20 4 C-20 3.34 -20 2.68 -20 2 C-13.2168636 0.57997892 -6.93302093 -0.22731216 0 0 Z " fill="#FFF9EC" transform="translate(314,623)"/>
<path d="M0 0 C0.66 0.33 1.32 0.66 2 1 C0.19350552 4.17012935 -1.62117335 7.33549532 -3.4375 10.5 C-4.2119043 11.85931641 -4.2119043 11.85931641 -5.00195312 13.24609375 C-5.49501953 14.10332031 -5.98808594 14.96054687 -6.49609375 15.84375 C-6.95169678 16.63974609 -7.4072998 17.43574219 -7.87670898 18.25585938 C-8.24739502 18.83142578 -8.61808105 19.40699219 -9 20 C-9.33 20 -9.66 20 -10 20 C-10.3986094 17.36917793 -10.35669777 15.58648061 -8.95703125 13.28515625 C-8.0613569 12.08479502 -7.15351517 10.89342682 -6.234375 9.7109375 C-4.8270784 7.91016424 -4.8270784 7.91016424 -3.875 5.125 C-3.58625 4.42375 -3.2975 3.7225 -3 3 C-2.01 2.67 -1.02 2.34 0 2 C0 1.34 0 0.68 0 0 Z " fill="#FEF4DE" transform="translate(619,337)"/>
<path d="M0 0 C2.56358968 2.33312269 4.17277011 4.77506083 5.8828125 7.78125 C6.67365234 9.16763672 6.67365234 9.16763672 7.48046875 10.58203125 C8.02316406 11.54496094 8.56585938 12.50789063 9.125 13.5 C9.67542969 14.46292969 10.22585938 15.42585938 10.79296875 16.41796875 C14.86221168 23.58663504 14.86221168 23.58663504 16 27 C15.34 27 14.68 27 14 27 C12.66141476 24.71125827 11.32898986 22.41930344 10 20.125 C9.6184375 19.47402344 9.236875 18.82304687 8.84375 18.15234375 C6 13.2265625 6 13.2265625 6 11 C5.01 10.67 4.02 10.34 3 10 C2.05078125 7.71484375 2.05078125 7.71484375 1.3125 4.9375 C1.06113281 4.01839844 0.80976563 3.09929687 0.55078125 2.15234375 C0.36902344 1.44207031 0.18726563 0.73179687 0 0 Z " fill="#CFAC50" transform="translate(391,318)"/>
<path d="M0 0 C0.66 0 1.32 0 2 0 C0.61047587 4.01018103 -1.26698294 6.90032723 -3.9375 10.1875 C-4.62714844 11.04730469 -5.31679688 11.90710938 -6.02734375 12.79296875 C-8 15 -8 15 -11 17 C-10.68563548 11.81298543 -7.69966733 8.4052641 -4 5 C-3.34 5 -2.68 5 -2 5 C-2 4.01 -2 3.02 -2 2 C-1.34 2 -0.68 2 0 2 C0 1.34 0 0.68 0 0 Z " fill="#DF7662" transform="translate(401,521)"/>
<path d="M0 0 C0.33 1.32 0.66 2.64 1 4 C1.66 4 2.32 4 3 4 C3.33773438 4.71027344 3.67546875 5.42054688 4.0234375 6.15234375 C4.46945312 7.07144531 4.91546875 7.99054687 5.375 8.9375 C6.03628906 10.31228516 6.03628906 10.31228516 6.7109375 11.71484375 C7.79199162 14.12903802 7.79199162 14.12903802 10 15 C10 15.99 10 16.98 10 18 C10.99 18.33 11.98 18.66 13 19 C12.67 19.99 12.34 20.98 12 22 C1.3918289 9.3912805 1.3918289 9.3912805 -1 3 C-0.67 2.01 -0.34 1.02 0 0 Z " fill="#DA715E" transform="translate(446,514)"/>
<path d="M0 0 C-3.32276739 2.94302254 -5.59352943 4.42020124 -10 5 C-10.99 5.33 -11.98 5.66 -13 6 C-13 6.66 -13 7.32 -13 8 C-19.625 12 -19.625 12 -23 12 C-6.4842168 -2.1614056 -6.4842168 -2.1614056 0 0 Z " fill="#DC7462" transform="translate(327,434)"/>
<path d="M0 0 C0.33 0 0.66 0 1 0 C1.103125 1.0725 1.20625 2.145 1.3125 3.25 C2.01194892 7.06517593 2.65317682 8.11160224 5 11 C8.37765957 17.75531915 8.37765957 17.75531915 7 22 C5.84120336 19.81855776 4.69812622 17.63096983 3.5625 15.4375 C3.23701172 14.82841797 2.91152344 14.21933594 2.57617188 13.59179688 C0.43214933 9.41426841 -0.66998017 5.75828589 -1 1 C-0.67 0.67 -0.34 0.34 0 0 Z " fill="#DE7461" transform="translate(288,505)"/>
<path d="M0 0 C4.38342031 1.4998458 5.61046688 4.33414806 7.6875 8.3125 C8.28949219 9.44300781 8.89148438 10.57351563 9.51171875 11.73828125 C10.80812479 14.57948608 11.56775103 16.92815063 12 20 C9.76523324 17.91903659 8.22297814 15.90570392 6.73828125 13.2421875 C6.14370117 12.18064453 6.14370117 12.18064453 5.53710938 11.09765625 C5.13298828 10.36417969 4.72886719 9.63070313 4.3125 8.875 C3.68891602 7.76318359 3.68891602 7.76318359 3.05273438 6.62890625 C0 1.14501232 0 1.14501232 0 0 Z " fill="#FDF7D5" transform="translate(527,281)"/>
<path d="M0 0 C0.66 0 1.32 0 2 0 C0.3003494 4.73474097 -2.13659027 8.96167111 -4.625 13.3125 C-5.04523437 14.05306641 -5.46546875 14.79363281 -5.8984375 15.55664062 C-6.92948495 17.37269011 -7.96436046 19.18656533 -9 21 C-9.33 21 -9.66 21 -10 21 C-10 19.35 -10 17.7 -10 16 C-9.34 16 -8.68 16 -8 16 C-8 14.68 -8 13.36 -8 12 C-7.34 12 -6.68 12 -6 12 C-6 11.01 -6 10.02 -6 9 C-5.34 9 -4.68 9 -4 9 C-4 8.01 -4 7.02 -4 6 C-3.34 6 -2.68 6 -2 6 C-2 5.01 -2 4.02 -2 3 C-1.34 3 -0.68 3 0 3 C0 2.01 0 1.02 0 0 Z " fill="#FEF2DC" transform="translate(649,285)"/>
<path d="M0 0 C0.66 0 1.32 0 2 0 C1.47041301 4.8388291 0.05604351 8.14968204 -2.4375 12.3125 C-3.05496094 13.36050781 -3.67242188 14.40851562 -4.30859375 15.48828125 C-6 18 -6 18 -8 19 C-7.63899393 15.84119686 -7.18717223 14.22460667 -5.125 11.75 C-2.32368239 8.12476545 -1.25422888 4.36129588 0 0 Z " fill="#DC705D" transform="translate(561,510)"/>
<path d="M0 0 C0.66 0.33 1.32 0.66 2 1 C0.38395881 3.98411132 -1.24430729 6.9613735 -2.875 9.9375 C-3.33519531 10.78763672 -3.79539062 11.63777344 -4.26953125 12.51367188 C-4.71425781 13.32255859 -5.15898438 14.13144531 -5.6171875 14.96484375 C-6.22989502 16.08814087 -6.22989502 16.08814087 -6.85498047 17.23413086 C-8 19 -8 19 -10 20 C-9.42415568 17.61435923 -8.77772405 15.33317216 -8 13 C-7.34 13 -6.68 13 -6 13 C-6 11.68 -6 10.36 -6 9 C-5.34 9 -4.68 9 -4 9 C-4 7.68 -4 6.36 -4 5 C-3.34 5 -2.68 5 -2 5 C-2 4.01 -2 3.02 -2 2 C-1.34 2 -0.68 2 0 2 C0 1.34 0 0.68 0 0 Z " fill="#FEF0D9" transform="translate(637,306)"/>
<path d="M0 0 C3.55959521 2.39588139 4.63500865 3.73656839 5.8125 7.8125 C5.874375 8.534375 5.93625 9.25625 6 10 C4.62437146 8.71034824 3.29233607 7.37310707 2 6 C2 5.34 2 4.68 2 4 C-2.58191774 1.63513923 -6.96056114 1.59420249 -12 2 C-12.99 2.33 -13.98 2.66 -15 3 C-15 2.34 -15 1.68 -15 1 C-10.56658531 -1.21670735 -4.81366054 -0.53087458 0 0 Z " fill="#FAEFC2" transform="translate(363,268)"/>
<path d="M0 0 C0.66 0.33 1.32 0.66 2 1 C-1.86364295 5.48717034 -5.74790208 9.87675353 -10 14 C-10.99 13.67 -11.98 13.34 -13 13 C-8.71 8.71 -4.42 4.42 0 0 Z " fill="#25473A" transform="translate(229,216)"/>
<path d="M0 0 C1.8125 2.4375 1.8125 2.4375 3 5 C2.67 5.99 2.34 6.98 2 8 C1.4225 7.05125 0.845 6.1025 0.25 5.125 C-1.96197864 2.05280744 -2.61187053 1.24072347 -6 0 C-8.82085728 -0.24073194 -8.82085728 -0.24073194 -11.75 -0.125 C-12.73484375 -0.10695313 -13.7196875 -0.08890625 -14.734375 -0.0703125 C-15.48203125 -0.04710937 -16.2296875 -0.02390625 -17 0 C-17 -0.66 -17 -1.32 -17 -2 C-15.58456585 -2.19658808 -14.16755969 -2.38187546 -12.75 -2.5625 C-11.96109375 -2.66691406 -11.1721875 -2.77132813 -10.359375 -2.87890625 C-6.52057505 -3.07593075 -3.22376443 -2.07984802 0 0 Z " fill="#FEEDD4" transform="translate(679,270)"/>
<path d="M0 0 C0.33 0 0.66 0 1 0 C1.04898437 0.97839844 1.09796875 1.95679688 1.1484375 2.96484375 C1.59719833 11.64541211 1.59719833 11.64541211 3.125 20.1875 C3.93802853 23.72998143 4.02142585 24.75589395 3 28 C-0.84948633 22.2257705 -0.13852731 14.74888581 -0.0625 8 C-0.05798828 7.22527344 -0.05347656 6.45054687 -0.04882812 5.65234375 C-0.03719758 3.76819476 -0.01926906 1.88408635 0 0 Z " fill="#FBD3CA" transform="translate(284,485)"/>
<path d="M0 0 C1.98 0.99 1.98 0.99 4 2 C4 2.99 4 3.98 4 5 C4.66 5 5.32 5 6 5 C6.70226141 6.24176695 7.38629109 7.49385599 8.0625 8.75 C8.44535156 9.44609375 8.82820312 10.1421875 9.22265625 10.859375 C10.14325402 13.39448846 9.74322814 14.47163511 9 17 C7.49743011 14.35559624 5.9978388 11.70958148 4.5 9.0625 C4.07074219 8.30775391 3.64148438 7.55300781 3.19921875 6.77539062 C2.79316406 6.05673828 2.38710938 5.33808594 1.96875 4.59765625 C1.59169922 3.93258057 1.21464844 3.26750488 0.82617188 2.58227539 C0 1 0 1 0 0 Z " fill="#FEF0D8" transform="translate(719,342)"/>
<path d="M0 0 C1.82421875 0.19921875 1.82421875 0.19921875 4 1 C5.51953125 3.14453125 5.51953125 3.14453125 6.8125 5.8125 C7.25207031 6.68519531 7.69164062 7.55789063 8.14453125 8.45703125 C9.06404749 11.19038776 9.0076835 12.34787595 8 15 C6.66407203 12.6889639 5.33115569 10.37628245 4 8.0625 C3.6184375 7.40314453 3.236875 6.74378906 2.84375 6.06445312 C0 1.11328125 0 1.11328125 0 0 Z " fill="#FDF8D3" transform="translate(382,301)"/>
<path d="M0 0 C0.99 0.33 1.98 0.66 3 1 C2.52949219 1.65226562 2.05898438 2.30453125 1.57421875 2.9765625 C-1.66443932 7.52275333 -4.71777926 11.8985654 -7 17 C-7.33 17 -7.66 17 -8 17 C-8 15.35 -8 13.7 -8 12 C-7.34 12 -6.68 12 -6 12 C-5.855625 11.401875 -5.71125 10.80375 -5.5625 10.1875 C-5.1127561 8.43849596 -4.57107659 6.71322977 -4 5 C-3.34 5 -2.68 5 -2 5 C-2 4.01 -2 3.02 -2 2 C-1.34 2 -0.68 2 0 2 C0 1.34 0 0.68 0 0 Z " fill="#FDF4D0" transform="translate(501,271)"/>
<path d="M0 0 C2.70482125 2.70482125 3.5076736 5.82543681 4.6875 9.375 C5.04424805 10.38433594 5.04424805 10.38433594 5.40820312 11.4140625 C7.46407193 17.53946634 7.46407193 17.53946634 6 21 C4 18 4 18 3.5625 14.75 C3.1092933 11.72862201 2.6660573 9.9820287 1.4375 7.3125 C0 4 0 4 0 0 Z " fill="#DC7968" transform="translate(559,463)"/>
<path d="M0 0 C3.98637422 1.55076343 6.02669078 4.0940683 8.6875 7.375 C9.47511719 8.33148438 10.26273437 9.28796875 11.07421875 10.2734375 C12.77513368 12.68162943 13.59890327 14.13113863 14 17 C11.07130346 14.17589976 8.41572077 11.27847819 6 8 C6 7.34 6 6.68 6 6 C5.38125 5.7525 4.7625 5.505 4.125 5.25 C1.64931313 3.79371361 1.04874998 2.62187494 0 0 Z " fill="#D57261" transform="translate(389,445)"/>
<path d="M0 0 C0.99 0.33 1.98 0.66 3 1 C3.6875 3.0625 3.6875 3.0625 4 5 C4.66 5 5.32 5 6 5 C9.34821429 11.96428571 9.34821429 11.96428571 8 16 C6.66141476 13.71125827 5.32898986 11.41930344 4 9.125 C3.6184375 8.47402344 3.236875 7.82304687 2.84375 7.15234375 C0 2.2265625 0 2.2265625 0 0 Z " fill="#FCF5D0" transform="translate(391,316)"/>
<path d="M0 0 C3.24741424 2.78496601 5.16089095 6.39536751 7.25 10.0625 C7.62640625 10.69994141 8.0028125 11.33738281 8.390625 11.99414062 C9.32643643 13.6266499 10.17105723 15.31071511 11 17 C10.67 17.66 10.34 18.32 10 19 C9.54625 18.195625 9.0925 17.39125 8.625 16.5625 C7.25274335 13.91143428 7.25274335 13.91143428 5 13 C4.05790983 11.22144796 3.19286047 9.40149035 2.375 7.5625 C1.70597656 6.07943359 1.70597656 6.07943359 1.0234375 4.56640625 C0 2 0 2 0 0 Z " fill="#D4AE56" transform="translate(526,281)"/>
<path d="M0 0 C-12.87537556 5.9012138 -12.87537556 5.9012138 -19 4 C-17.43979133 3.34865075 -15.87671421 2.70417036 -14.3125 2.0625 C-13.44238281 1.70285156 -12.57226562 1.34320313 -11.67578125 0.97265625 C-7.4967548 -0.54643511 -4.29051983 -1.43017328 0 0 Z " fill="#DB7563" transform="translate(496,430)"/>
<path d="M0 0 C1 3 1 3 -0.21484375 5.69921875 C-0.78332031 6.68535156 -1.35179687 7.67148437 -1.9375 8.6875 C-2.50339844 9.68136719 -3.06929687 10.67523438 -3.65234375 11.69921875 C-4.09707031 12.45847656 -4.54179688 13.21773438 -5 14 C-5.66 14 -6.32 14 -7 14 C-7.33 15.32 -7.66 16.64 -8 18 C-8.66 17.67 -9.32 17.34 -10 17 C-6.7 11.39 -3.4 5.78 0 0 Z " fill="#EAAD77" transform="translate(650,287)"/>
<path d="M0 0 C0.99 0 1.98 0 3 0 C4.4606285 2.64738916 5 3.89448334 5 7 C5.66 7 6.32 7 7 7 C10.125 13.625 10.125 13.625 9 17 C7.49743011 14.35559624 5.9978388 11.70958148 4.5 9.0625 C4.07074219 8.30775391 3.64148438 7.55300781 3.19921875 6.77539062 C2.79316406 6.05673828 2.38710938 5.33808594 1.96875 4.59765625 C1.59169922 3.93258057 1.21464844 3.26750488 0.82617188 2.58227539 C0 1 0 1 0 0 Z " fill="#FBF4C9" transform="translate(372,284)"/>
<path d="M0 0 C0.66 0 1.32 0 2 0 C1.41841104 4.03477342 0.13243941 6.85241201 -2 10.3125 C-2.53625 11.19550781 -3.0725 12.07851563 -3.625 12.98828125 C-4.07875 13.65214844 -4.5325 14.31601562 -5 15 C-5.33 15 -5.66 15 -6 15 C-6 13.02 -6 11.04 -6 9 C-5.360625 8.7525 -4.72125 8.505 -4.0625 8.25 C-1.84138939 7.20121972 -1.84138939 7.20121972 -1.3125 5.0625 C-1.209375 4.381875 -1.10625 3.70125 -1 3 C-0.67 2.01 -0.34 1.02 0 0 Z " fill="#FCF6D1" transform="translate(337,282)"/>
<path d="M0 0 C0.33 0 0.66 0 1 0 C1.66 2.64 2.32 5.28 3 8 C3.66 8 4.32 8 5 8 C6.49524178 10.2727675 7.78399715 12.5679943 9 15 C5.53371274 14.03714243 4.06582992 13.07650505 1.6875 10.3125 C-0.22487823 6.55857236 -0.33242149 4.15526857 0 0 Z " fill="#EBAC76" transform="translate(286,738)"/>
<path d="M0 0 C0.99 0 1.98 0 3 0 C3.26554687 0.55429687 3.53109375 1.10859375 3.8046875 1.6796875 C4.15789062 2.40414063 4.51109375 3.12859375 4.875 3.875 C5.22304688 4.59429687 5.57109375 5.31359375 5.9296875 6.0546875 C6.96557543 8.15135019 6.96557543 8.15135019 9 10 C9.125 12.625 9.125 12.625 9 15 C4.95808535 10.50898372 2.56325559 5.41015011 0 0 Z " fill="#FDF6D0" transform="translate(400,332)"/>
<path d="M0 0 C2.7578125 0.21875 2.7578125 0.21875 5.7578125 3.21875 C-1.5021875 2.88875 -8.7621875 2.55875 -16.2421875 2.21875 C-16.2421875 1.88875 -16.2421875 1.55875 -16.2421875 1.21875 C-14.20076356 1.04913614 -12.15903439 0.88319404 -10.1171875 0.71875 C-8.41175781 0.57953125 -8.41175781 0.57953125 -6.671875 0.4375 C-4.4476599 0.29563662 -2.22367907 0.15003136 0 0 Z " fill="#FED5CC" transform="translate(356.2421875,426.78125)"/>
<path d="M0 0 C1 3 1 3 -0.14453125 5.33984375 C-0.69496094 6.19707031 -1.24539063 7.05429687 -1.8125 7.9375 C-3.69847446 10.90757379 -5.48789528 13.82089204 -7 17 C-7.66 17 -8.32 17 -9 17 C-7.51481201 12.95698825 -5.57122002 9.38853744 -3.375 5.6875 C-2.74335938 4.61886719 -2.11171875 3.55023438 -1.4609375 2.44921875 C-0.97882813 1.64097656 -0.49671875 0.83273437 0 0 Z " fill="#CFAC50" transform="translate(324,309)"/>
<path d="M0 0 C5.06998019 0.65419099 9.41990777 2.8546409 14 5 C14 5.66 14 6.32 14 7 C4.22210581 3.99633316 4.22210581 3.99633316 0 1 C0 0.67 0 0.34 0 0 Z " fill="#DA715F" transform="translate(471,545)"/>
<path d="M0 0 C0.66 0.33 1.32 0.66 2 1 C-4.54201681 7.90546218 -4.54201681 7.90546218 -10.25 8.125 C-11.1575 8.08375 -12.065 8.0425 -13 8 C-13 7.67 -13 7.34 -13 7 C-11.6078125 6.566875 -11.6078125 6.566875 -10.1875 6.125 C-6.90208333 5.1125 -6.90208333 5.1125 -4 3 C-3.01 3 -2.02 3 -1 3 C-0.67 2.01 -0.34 1.02 0 0 Z " fill="#E9AF7C" transform="translate(734,747)"/>
<path d="M0 0 C-0.54269531 0.23074219 -1.08539062 0.46148437 -1.64453125 0.69921875 C-6.24642609 2.79701946 -8.75891676 4.26882427 -11 9 C-11.66 9.66 -12.32 10.32 -13 11 C-13.33 10.01 -13.66 9.02 -14 8 C-12.92578125 6.24609375 -12.92578125 6.24609375 -11.3125 4.4375 C-10.79300781 3.83808594 -10.27351562 3.23867188 -9.73828125 2.62109375 C-6.47985443 -0.41766385 -4.30941367 -1.53907631 0 0 Z " fill="#CCAB4C" transform="translate(628,430)"/>
<path d="M0 0 C0.99 0 1.98 0 3 0 C3 1.32 3 2.64 3 4 C3.66 4 4.32 4 5 4 C8.10096154 9.45769231 8.10096154 9.45769231 7.58984375 12.203125 C7.39519531 12.79609375 7.20054687 13.3890625 7 14 C5.82807953 12.04480616 4.6626071 10.0857461 3.5 8.125 C2.8503125 7.03445313 2.200625 5.94390625 1.53125 4.8203125 C0 2 0 2 0 0 Z " fill="#FDF7D2" transform="translate(409,347)"/>
<path d="M0 0 C3.37244652 3.99697365 6.71374722 8.27090179 9 13 C8.67 13.66 8.34 14.32 8 15 C5 11.25 5 11.25 5 9 C4.34 9 3.68 9 3 9 C3 8.34 3 7.68 3 7 C2.34 7 1.68 7 1 7 C0.67 4.69 0.34 2.38 0 0 Z " fill="#D5AC52" transform="translate(555,331)"/>
<path d="M0 0 C0.66 0 1.32 0 2 0 C5.77089394 4.50106704 8.69306887 9.01484303 9 15 C4.95808535 10.50898372 2.56325559 5.41015011 0 0 Z " fill="#FEF2DC" transform="translate(693,297)"/>
<path d="M0 0 C2.72035873 1.01941864 3.82069194 1.69092244 5.30078125 4.2421875 C5.63464844 5.11101562 5.96851563 5.97984375 6.3125 6.875 C6.65925781 7.73867188 7.00601563 8.60234375 7.36328125 9.4921875 C8.03606832 12.1420605 7.91480142 13.4621638 7 16 C6.66226563 15.18015625 6.32453125 14.3603125 5.9765625 13.515625 C5.53054688 12.43796875 5.08453125 11.3603125 4.625 10.25 C4.18414063 9.18265625 3.74328125 8.1153125 3.2890625 7.015625 C2.26692415 4.62444074 1.19786405 2.30616817 0 0 Z " fill="#FEE1D9" transform="translate(556,457)"/>
<path d="M0 0 C0.33 0.66 0.66 1.32 1 2 C-1.19401522 6.50992018 -4.44930542 10.72465271 -9 13 C-7.47987323 7.59510481 -3.72614782 4.01507372 0 0 Z " fill="#D96E59" transform="translate(303,447)"/>
<path d="M0 0 C-2.34109882 1.56073255 -4.56333403 2.86373867 -7.0625 4.125 C-8.10083984 4.65480469 -8.10083984 4.65480469 -9.16015625 5.1953125 C-11 6 -11 6 -13 6 C-13 5.34 -13 4.68 -13 4 C-12.34 4 -11.68 4 -11 4 C-11 3.34 -11 2.68 -11 2 C-7.17010894 0.19769832 -4.21878192 -0.19622241 0 0 Z " fill="#FDE3DB" transform="translate(484,431)"/>
<path d="M0 0 C0.99 0.33 1.98 0.66 3 1 C2.60167969 1.45890625 2.20335937 1.9178125 1.79296875 2.390625 C-0.91142062 5.52271585 -3.57991771 8.63877459 -6 12 C-6 10.35 -6 8.7 -6 7 C-5.34 7 -4.68 7 -4 7 C-3.71125 6.030625 -3.4225 5.06125 -3.125 4.0625 C-2 1 -2 1 0 0 Z " fill="#FDEDD4" transform="translate(659,270)"/>
<path d="M0 0 C1.32 0.33 2.64 0.66 4 1 C3.52949219 1.38671875 3.05898438 1.7734375 2.57421875 2.171875 C-0.6817612 4.89530336 -3.65453533 7.41281874 -6 11 C-5.4739075 7.21213403 -4.61896089 4.82847776 -2 2 C-1.34 2 -0.68 2 0 2 C0 1.34 0 0.68 0 0 Z " fill="#FEEFD7" transform="translate(291,627)"/>
<path d="M0 0 C0.99 0.33 1.98 0.66 3 1 C-1.455 4.465 -1.455 4.465 -6 8 C-6.33 7.34 -6.66 6.68 -7 6 C-5.625 4.5 -5.625 4.5 -4 3 C-3.34 3 -2.68 3 -2 3 C-2 2.34 -2 1.68 -2 1 C-1.34 0.67 -0.68 0.34 0 0 Z " fill="#DD725F" transform="translate(543,537)"/>
<path d="M0 0 C1.31225809 3.93677426 0.3393954 5.7794262 -0.9375 9.6875 C-1.50791016 11.45673828 -1.50791016 11.45673828 -2.08984375 13.26171875 C-2.39019531 14.16535156 -2.69054687 15.06898438 -3 16 C-4.13891534 12.58325399 -3.83543755 10.93822735 -3.1875 7.4375 C-3.01605469 6.46683594 -2.84460938 5.49617188 -2.66796875 4.49609375 C-2 2 -2 2 0 0 Z " fill="#DA715F" transform="translate(409,501)"/>
<path d="M0 0 C-1.05339554 3.27723056 -2.63763259 4.60460094 -5.5 6.3125 C-6.655 6.869375 -7.81 7.42625 -9 8 C-9.66 7.67 -10.32 7.34 -11 7 C-9.54634731 5.82750647 -8.08692581 4.66216184 -6.625 3.5 C-5.40683594 2.52546875 -5.40683594 2.52546875 -4.1640625 1.53125 C-2 0 -2 0 0 0 Z " fill="#DF7764" transform="translate(470,439)"/>
<path d="M0 0 C0.33 0.66 0.66 1.32 1 2 C-0.38542316 5.62848922 -1.84351662 8.76527494 -4 12 C-4.66 12 -5.32 12 -6 12 C-4.68139111 7.38486888 -2.78644563 3.90102388 0 0 Z " fill="#EBAE79" transform="translate(631,320)"/>
<path d="M0 0 C1.27310312 0.93441535 2.543388 1.87267111 3.8125 2.8125 C4.52019531 3.33457031 5.22789062 3.85664062 5.95703125 4.39453125 C7.78531393 5.83128877 9.39896688 7.31815763 11 9 C9.68 9 8.36 9 7 9 C7 8.34 7 7.68 7 7 C6.01 7 5.02 7 4 7 C4 6.34 4 5.68 4 5 C2.68 4.34 1.36 3.68 0 3 C0 2.01 0 1.02 0 0 Z " fill="#FEE1DA" transform="translate(303,536)"/>
<path d="M0 0 C0.66 0 1.32 0 2 0 C0.41037341 4.03520597 -1.28232318 8.01811282 -3 12 C-3.33 12 -3.66 12 -4 12 C-4.22036864 8.14354879 -3.60355101 5.50776784 -2 2 C-1.34 2 -0.68 2 0 2 C0 1.34 0 0.68 0 0 Z " fill="#FDE3DB" transform="translate(447,459)"/>
<path d="M0 0 C2.48982535 2.27745789 4.10368997 4.62335238 5.75 7.5625 C6.19859375 8.34753906 6.6471875 9.13257813 7.109375 9.94140625 C7.40328125 10.62074219 7.6971875 11.30007813 8 12 C7.67 12.66 7.34 13.32 7 14 C5.82188197 12.42516875 4.65787174 10.83977627 3.5 9.25 C2.8503125 8.36828125 2.200625 7.4865625 1.53125 6.578125 C0 4 0 4 0 0 Z " fill="#EAAD7A" transform="translate(695,302)"/>
<path d="M0 0 C0.33 0 0.66 0 1 0 C1.46192125 4.92715996 -0.1724717 8.50732625 -2 13 C-2.66 13 -3.32 13 -4 13 C-3.71517632 11.58194169 -3.42181856 10.16559621 -3.125 8.75 C-2.96257812 7.96109375 -2.80015625 7.1721875 -2.6328125 6.359375 C-2.00849925 4.03168856 -1.15161458 2.10968048 0 0 Z " fill="#DA7765" transform="translate(290,466)"/>
<path d="M0 0 C4.23429756 1.31061591 8.07407404 2.94356259 12 5 C9.5332355 5.88336837 8.36140628 6.1312406 5.859375 5.22265625 C5.16328125 4.83980469 4.4671875 4.45695312 3.75 4.0625 C3.04359375 3.68222656 2.3371875 3.30195313 1.609375 2.91015625 C1.07828125 2.60980469 0.5471875 2.30945313 0 2 C0 1.34 0 0.68 0 0 Z " fill="#DD715E" transform="translate(370,433)"/>
<path d="M0 0 C0.99 0 1.98 0 3 0 C6.125 5.5 6.125 5.5 5 10 C3.35 6.7 1.7 3.4 0 0 Z " fill="#FCF5D2" transform="translate(567,350)"/>
<path d="M0 0 C3 1 3 1 4.203125 2.7421875 C4.54859375 3.44601562 4.8940625 4.14984375 5.25 4.875 C5.60578125 5.57367188 5.9615625 6.27234375 6.328125 6.9921875 C7 9 7 9 6 12 C4.02 8.04 2.04 4.08 0 0 Z " fill="#FCF3CE" transform="translate(553,326)"/>
<path d="M0 0 C1.32 0.33 2.64 0.66 4 1 C6.08878929 4.68024779 6.06126775 5.75492899 5 10 C3.35 6.7 1.7 3.4 0 0 Z " fill="#FEF7D2" transform="translate(545,312)"/>
<path d="M0 0 C0.66 0.33 1.32 0.66 2 1 C-0.51830747 4.12270126 -1.7261549 4.94523098 -5.75 5.75 C-7.35875 5.87375 -7.35875 5.87375 -9 6 C-6.12050853 3.76039553 -3.23257974 1.70135776 0 0 Z " fill="#FDDFD7" transform="translate(537,544)"/>
<path d="M0 0 C0.99 0 1.98 0 3 0 C3 0.66 3 1.32 3 2 C5.475 2.99 5.475 2.99 8 4 C8 4.66 8 5.32 8 6 C8.66 6 9.32 6 10 6 C9.67 6.66 9.34 7.32 9 8 C7.49712782 6.85793642 5.99776716 5.71125043 4.5 4.5625 C3.6646875 3.92441406 2.829375 3.28632812 1.96875 2.62890625 C1.3190625 2.09136719 0.669375 1.55382812 0 1 C0 0.67 0 0.34 0 0 Z " fill="#DA7665" transform="translate(459,536)"/>
<path d="M0 0 C0.33 0.99 0.66 1.98 1 3 C-1.64 5.31 -4.28 7.62 -7 10 C-7.66 9.67 -8.32 9.34 -9 9 C-6.03 6.03 -3.06 3.06 0 0 Z " fill="#FEDED5" transform="translate(552,531)"/>
<path d="M0 0 C0 3 0 3 -2 6 C-5.625 7.1875 -5.625 7.1875 -9 8 C-6.14723863 5.06799526 -3.34920216 2.35684596 0 0 Z " fill="#FDDED5" transform="translate(391,537)"/>
<path d="M0 0 C1.47118907 3.82509158 0.45442741 6.28312995 -1 10 C-1.33 10.66 -1.66 11.32 -2 12 C-2.66 12 -3.32 12 -4 12 C-2.66666667 8 -1.33333333 4 0 0 Z " fill="#FDDFD6" transform="translate(563,510)"/>
<path d="M0 0 C8.57142857 0.85714286 8.57142857 0.85714286 12 3 C12 3.66 12 4.32 12 5 C10.56068883 4.54738642 9.12361001 4.08767021 7.6875 3.625 C6.88699219 3.36976563 6.08648438 3.11453125 5.26171875 2.8515625 C3 2 3 2 0 0 Z " fill="#FEE2D9" transform="translate(522,431)"/>
<path d="M0 0 C2.76390737 2.40339772 3.04065919 3.16263678 4 7 C1.03 7 -1.94 7 -5 7 C-5 6.67 -5 6.34 -5 6 C-3.02 6 -1.04 6 1 6 C0.67 4.02 0.34 2.04 0 0 Z " fill="#D1B356" transform="translate(412,354)"/>
<path d="M0 0 C0.33 0 0.66 0 1 0 C1.10884119 1.41493551 1.18597617 2.83232943 1.25 4.25 C1.29640625 5.03890625 1.3428125 5.8278125 1.390625 6.640625 C1 9 1 9 -3 13 C-2.01 8.71 -1.02 4.42 0 0 Z " fill="#FCF7D7" transform="translate(740,534)"/>
<path d="M0 0 C2.93200474 2.85276137 5.64315404 5.65079784 8 9 C6.25 8.875 6.25 8.875 4 8 C0 2.77777778 0 2.77777778 0 0 Z " fill="#FEE3D9" transform="translate(295,527)"/>
<path d="M0 0 C0.33 0.66 0.66 1.32 1 2 C0.21654285 3.17219543 -0.57702836 4.33763668 -1.375 5.5 C-1.81585938 6.1496875 -2.25671875 6.799375 -2.7109375 7.46875 C-3.13632812 7.9740625 -3.56171875 8.479375 -4 9 C-4.66 9 -5.32 9 -6 9 C-4.47291037 5.56404834 -2.40072955 2.88087546 0 0 Z " fill="#DA7967" transform="translate(458,447)"/>
<path d="M0 0 C3.36720387 1.39332574 4.9859524 2.9789286 7 6 C3.75728494 5.4409112 2.06942576 4.5867822 0 2 C0 1.34 0 0.68 0 0 Z " fill="#DC7A68" transform="translate(389,445)"/>
<path d="M0 0 C0.33 0 0.66 0 1 0 C2 7.625 2 7.625 2 11 C1.34 11.66 0.68 12.32 0 13 C0 8.71 0 4.42 0 0 Z " fill="#2E4C41" transform="translate(189,291)"/>
</svg>
